<svg width="36" height="36" viewBox="0 0 36 36" fill="none" xmlns="http://www.w3.org/2000/svg">
<path d="M10.1739 23.4784C10.6066 23.4784 10.9565 23.1278 10.9565 22.6958V14.8697C10.9565 13.5752 9.90307 12.5219 8.60864 12.5219H5.4782C4.18376 12.5219 3.13037 13.5752 3.13037 14.8697V22.6958C3.13037 23.1278 3.4802 23.4784 3.91298 23.4784C4.34576 23.4784 4.69559 23.1278 4.69559 22.6958V20.3479H9.39125V22.6958C9.39125 23.1278 9.74107 23.4784 10.1739 23.4784ZM4.69559 18.7827V14.8697C4.69559 14.4385 5.0462 14.0871 5.4782 14.0871H8.60864C9.04064 14.0871 9.39125 14.4385 9.39125 14.8697V18.7827H4.69559Z" fill="#54CAC5"/>
<path d="M16.4348 22.6958V20.3479H18.7827C20.9403 20.3479 22.6957 18.5925 22.6957 16.4349C22.6957 14.2772 20.9403 12.5219 18.7827 12.5219H15.6522C15.2195 12.5219 14.8696 12.8725 14.8696 13.3045V19.5653V22.6958C14.8696 23.1278 15.2195 23.4784 15.6522 23.4784C16.085 23.4784 16.4348 23.1278 16.4348 22.6958ZM16.4348 14.0871H18.7827C20.0771 14.0871 21.1305 15.1405 21.1305 16.4349C21.1305 17.7293 20.0771 18.7827 18.7827 18.7827H16.4348V14.0871Z" fill="#54CAC5"/>
<path d="M25.8261 21.9132C25.3933 21.9132 25.0435 22.2638 25.0435 22.6958C25.0435 23.1278 25.3933 23.4784 25.8261 23.4784H32.0869C32.5197 23.4784 32.8695 23.1278 32.8695 22.6958C32.8695 22.2638 32.5197 21.9132 32.0869 21.9132H29.7391V14.0871H32.0869C32.5197 14.0871 32.8695 13.7365 32.8695 13.3045C32.8695 12.8725 32.5197 12.5219 32.0869 12.5219H25.8261C25.3933 12.5219 25.0435 12.8725 25.0435 13.3045C25.0435 13.7365 25.3933 14.0871 25.8261 14.0871H28.1739V21.9132H25.8261Z" fill="#54CAC5"/>
<path d="M33.6522 4.6957H21.4544L18.5533 1.79456C18.2473 1.48856 17.7527 1.48856 17.4467 1.79456L14.5456 4.6957H2.34783C1.05339 4.6957 0 5.74909 0 7.04352V9.39135C0 9.82335 0.349826 10.174 0.782609 10.174C1.21539 10.174 1.56522 9.82335 1.56522 9.39135V7.04352C1.56522 6.61231 1.91583 6.26092 2.34783 6.26092H14.8696C15.0777 6.26092 15.2765 6.17874 15.4229 6.03161L18 3.45448L20.5771 6.03161C20.7235 6.17874 20.9223 6.26092 21.1304 6.26092H33.6522C34.0842 6.26092 34.4348 6.61231 34.4348 7.04352V9.39135C34.4348 9.82335 34.7846 10.174 35.2174 10.174C35.6502 10.174 36 9.82335 36 9.39135V7.04352C36 5.74909 34.9466 4.6957 33.6522 4.6957Z" fill="#54CAC5"/>
<path d="M35.2174 25.8262C34.7846 25.8262 34.4348 26.1768 34.4348 26.6088V28.9566C34.4348 29.3878 34.0842 29.7392 33.6522 29.7392H21.1304C20.9223 29.7392 20.7235 29.8214 20.5771 29.9685L18 32.5456L15.4229 29.9685C15.2765 29.8214 15.0777 29.7392 14.8696 29.7392H2.34783C1.91583 29.7392 1.56522 29.3878 1.56522 28.9566V26.6088C1.56522 26.1768 1.21539 25.8262 0.782609 25.8262C0.349826 25.8262 0 26.1768 0 26.6088V28.9566C0 30.251 1.05339 31.3044 2.34783 31.3044H14.5456L17.4467 34.2056C17.5993 34.3582 17.7997 34.4349 18 34.4349C18.2003 34.4349 18.4007 34.3582 18.5533 34.2056L21.4544 31.3044H33.6522C34.9466 31.3044 36 30.251 36 28.9566V26.6088C36 26.1768 35.6502 25.8262 35.2174 25.8262Z" fill="#54CAC5"/>
</svg>
