<svg width="36" height="36" viewBox="0 0 36 36" fill="none" xmlns="http://www.w3.org/2000/svg">
<path d="M31.2878 7.54102C30.9093 7.00306 30.4512 6.50501 29.973 6.02695C29.4949 5.54889 28.9969 5.09056 28.459 4.71204C25.4906 2.34141 21.8449 1 18 1C13.4777 1 9.23431 2.81953 6.02695 6.02695C2.8196 9.23438 1 13.4777 1 18C1 21.8648 2.34141 25.5105 4.71218 28.4789C5.11061 28.9967 5.54883 29.4948 6.02695 29.973C6.50508 30.4512 7.00312 30.8894 7.52109 31.2878C10.4894 33.6586 14.1352 35 18 35C22.5223 35 26.7657 33.1805 29.973 29.973C33.1805 26.7656 35 22.5222 35 18C35 14.1551 33.6586 10.5094 31.2878 7.54102ZM5.05078 18C5.05078 14.5336 6.40547 11.2863 8.836 8.83587C11.2863 6.40547 14.5336 5.05078 18 5.05078C20.7891 5.05078 23.4386 5.92734 25.6301 7.54102L7.56094 25.63C5.92734 23.4386 5.05078 20.789 5.05078 18ZM27.164 27.164C24.7137 29.5945 21.4664 30.9492 18 30.9492C15.2109 30.9492 12.5614 30.0727 10.3699 28.4391L28.459 10.3699C30.0727 12.5613 30.9492 15.2109 30.9492 18C30.9492 21.4664 29.5945 24.7137 27.164 27.164Z" fill="#FE646F"/>
<path d="M7.49553 31.2844C10.4666 33.6573 14.1157 35 17.9842 35C22.5107 35 26.758 33.1788 29.9684 29.9684C33.1788 26.7579 35 22.5106 35 17.9842C35 14.1357 33.6573 10.4866 31.2844 7.51547C30.9055 6.97701 30.4469 6.4785 29.9684 6L6 29.9684C6.4785 30.4469 6.97701 30.8856 7.49553 31.2844ZM28.4529 10.3469C30.0681 12.5404 30.9455 15.1925 30.9455 17.9842C30.9455 21.4538 29.5895 24.7041 27.1567 27.1567C24.7041 29.5895 21.4538 30.9455 17.9842 30.9455C15.1925 30.9455 12.5405 30.0681 10.3469 28.433L28.4529 10.3469Z" fill="#FD4755"/>
</svg>
