<svg width="36" height="36" viewBox="0 0 36 36" fill="none" xmlns="http://www.w3.org/2000/svg">
<g clip-path="url(#clip0)">
<path d="M31.3295 36.0004H16.9074L16.8975 14.9165H31.3195L31.3295 36.0004Z" fill="#FDB11C"/>
<path d="M31.3192 14.9165H28.0857L28.0957 36.0004H31.3292L31.3192 14.9165Z" fill="#FFA800"/>
<path d="M32.6986 14.5649H16.8979V16.3597H32.6986V14.5649Z" fill="#FDB11C"/>
<path d="M20.6374 36.0002H4.50577L4.49072 0.803589H20.6224L20.6374 36.0002Z" fill="#72E1DC"/>
<path d="M20.6223 0.803589H17.4348L17.4499 36.0002H20.6373L20.6223 0.803589Z" fill="#50CFC9"/>
<path d="M21.6745 0H3.45382C3.36916 0 3.30054 0.068625 3.30054 0.153281V1.4535C3.30054 1.53816 3.36916 1.60678 3.45382 1.60678H21.6745C21.7592 1.60678 21.8278 1.53816 21.8278 1.4535V0.153281C21.8279 0.068625 21.7592 0 21.6745 0Z" fill="#54CAC5"/>
<path d="M27.4165 36H24.5396V31.0223C24.5396 30.8978 24.6405 30.7969 24.765 30.7969H27.191C27.3156 30.7969 27.4165 30.8978 27.4165 31.0223V36H27.4165Z" fill="#E1EFFB"/>
<path d="M14.3337 36H10.7947V28.3693C10.7947 28.2343 10.9041 28.125 11.0389 28.125H14.0894C14.2243 28.125 14.3336 28.2344 14.3336 28.3693V36H14.3337Z" fill="#E1EFFB"/>
<path d="M8.95922 8.33189H6.81701C6.75829 8.33189 6.71069 8.28429 6.71069 8.22558V5.30944C6.71069 5.25073 6.75829 5.20312 6.81701 5.20312H8.95922C9.01793 5.20312 9.06553 5.25073 9.06553 5.30944V8.22565C9.06553 8.28436 9.01793 8.33189 8.95922 8.33189Z" fill="#E1EFFB"/>
<path d="M13.6609 8.33189H11.5187C11.46 8.33189 11.4124 8.28429 11.4124 8.22558V5.30944C11.4124 5.25073 11.46 5.20312 11.5187 5.20312H13.6609C13.7196 5.20312 13.7672 5.25073 13.7672 5.30944V8.22565C13.7671 8.28436 13.7195 8.33189 13.6609 8.33189Z" fill="#E1EFFB"/>
<path d="M18.3623 8.33189H16.2201C16.1614 8.33189 16.1138 8.28429 16.1138 8.22558V5.30944C16.1138 5.25073 16.1614 5.20312 16.2201 5.20312H18.3623C18.421 5.20312 18.4686 5.25073 18.4686 5.30944V8.22565C18.4686 8.28436 18.421 8.33189 18.3623 8.33189Z" fill="#E1EFFB"/>
<path d="M8.95922 16.2656H6.81701C6.75829 16.2656 6.71069 16.218 6.71069 16.1593V13.2431C6.71069 13.1844 6.75829 13.1368 6.81701 13.1368H8.95922C9.01793 13.1368 9.06553 13.1844 9.06553 13.2431V16.1593C9.06553 16.218 9.01793 16.2656 8.95922 16.2656Z" fill="#E1EFFB"/>
<path d="M13.6609 16.2656H11.5187C11.46 16.2656 11.4124 16.218 11.4124 16.1593V13.2431C11.4124 13.1844 11.46 13.1368 11.5187 13.1368H13.6609C13.7196 13.1368 13.7672 13.1844 13.7672 13.2431V16.1593C13.7671 16.218 13.7195 16.2656 13.6609 16.2656Z" fill="#E1EFFB"/>
<path d="M18.3623 16.2656H16.2201C16.1614 16.2656 16.1138 16.218 16.1138 16.1593V13.2431C16.1138 13.1844 16.1614 13.1368 16.2201 13.1368H18.3623C18.421 13.1368 18.4686 13.1844 18.4686 13.2431V16.1593C18.4686 16.218 18.421 16.2656 18.3623 16.2656Z" fill="#E1EFFB"/>
<path d="M8.95922 24.1993H6.81701C6.75829 24.1993 6.71069 24.1517 6.71069 24.093V21.1767C6.71069 21.118 6.75829 21.0704 6.81701 21.0704H8.95922C9.01793 21.0704 9.06553 21.118 9.06553 21.1767V24.093C9.06553 24.1517 9.01793 24.1993 8.95922 24.1993Z" fill="#E1EFFB"/>
<path d="M13.6609 24.1993H11.5187C11.46 24.1993 11.4124 24.1517 11.4124 24.093V21.1767C11.4124 21.118 11.46 21.0704 11.5187 21.0704H13.6609C13.7196 21.0704 13.7672 21.118 13.7672 21.1767V24.093C13.7671 24.1517 13.7195 24.1993 13.6609 24.1993Z" fill="#E1EFFB"/>
<path d="M18.3623 24.1993H16.2201C16.1614 24.1993 16.1138 24.1517 16.1138 24.093V21.1767C16.1138 21.118 16.1614 21.0704 16.2201 21.0704H18.3623C18.421 21.0704 18.4686 21.118 18.4686 21.1767V24.093C18.4686 24.1517 18.421 24.1993 18.3623 24.1993Z" fill="#E1EFFB"/>
<path d="M8.95922 32.1329H6.81701C6.75829 32.1329 6.71069 32.0853 6.71069 32.0266V29.1104C6.71069 29.0517 6.75829 29.0041 6.81701 29.0041H8.95922C9.01793 29.0041 9.06553 29.0517 9.06553 29.1104V32.0266C9.06553 32.0853 9.01793 32.1329 8.95922 32.1329Z" fill="#E1EFFB"/>
<path d="M18.3623 32.1329H16.2201C16.1614 32.1329 16.1138 32.0853 16.1138 32.0266V29.1104C16.1138 29.0517 16.1614 29.0041 16.2201 29.0041H18.3623C18.421 29.0041 18.4686 29.0517 18.4686 29.1104V32.0266C18.4686 32.0853 18.421 32.1329 18.3623 32.1329Z" fill="#E1EFFB"/>
<path d="M24.6654 22.267H22.6854C22.6311 22.267 22.5872 22.223 22.5872 22.1688V19.4734C22.5872 19.4191 22.6312 19.3752 22.6854 19.3752H24.6654C24.7197 19.3752 24.7636 19.4192 24.7636 19.4734V22.1688C24.7636 22.223 24.7197 22.267 24.6654 22.267Z" fill="#E1EFFB"/>
<path d="M29.0111 22.267H27.0311C26.9768 22.267 26.9329 22.223 26.9329 22.1688V19.4734C26.9329 19.4191 26.9769 19.3752 27.0311 19.3752H29.0111C29.0654 19.3752 29.1093 19.4192 29.1093 19.4734V22.1688C29.1093 22.223 29.0653 22.267 29.0111 22.267Z" fill="#E1EFFB"/>
<path d="M24.6654 27.7811H22.6854C22.6311 27.7811 22.5872 27.7371 22.5872 27.6829V24.9875C22.5872 24.9332 22.6312 24.8892 22.6854 24.8892H24.6654C24.7197 24.8892 24.7636 24.9333 24.7636 24.9875V27.6829C24.7636 27.7371 24.7197 27.7811 24.6654 27.7811Z" fill="#E1EFFB"/>
<path d="M29.0111 27.7811H27.0311C26.9768 27.7811 26.9329 27.7371 26.9329 27.6829V24.9875C26.9329 24.9332 26.9769 24.8892 27.0311 24.8892H29.0111C29.0654 24.8892 29.1093 24.9333 29.1093 24.9875V27.6829C29.1093 27.7371 29.0653 27.7811 29.0111 27.7811Z" fill="#E1EFFB"/>
<path d="M33.3376 34.1721H2.66204C2.15727 34.1721 1.74805 34.5813 1.74805 35.0861C1.74805 35.5908 2.15727 36.0001 2.66204 36.0001H33.3376C33.8424 36.0001 34.2516 35.5908 34.2516 35.0861C34.2515 34.5813 33.8424 34.1721 33.3376 34.1721Z" fill="#77DD00"/>
<path d="M34.0796 35.6187C34.0878 35.6073 34.096 35.5959 34.1036 35.5841C34.1114 35.5721 34.1187 35.5598 34.1259 35.5474C34.1332 35.5351 34.1404 35.5228 34.1471 35.5102C34.1537 35.4975 34.1597 35.4845 34.1657 35.4715C34.1718 35.4584 34.1781 35.4456 34.1836 35.4321C34.189 35.4189 34.1936 35.4051 34.1984 35.3916C34.2033 35.3779 34.2085 35.3643 34.2127 35.3503C34.2169 35.3364 34.2201 35.3221 34.2236 35.3079C34.2272 35.2937 34.2312 35.2796 34.2341 35.2652C34.2371 35.2501 34.2388 35.2346 34.2411 35.2192C34.2431 35.2052 34.2459 35.1913 34.2473 35.1771C34.2502 35.1471 34.2518 35.1167 34.2518 35.086C34.2518 35.0612 34.2492 35.0372 34.2473 35.013V34.9949C34.2468 34.9904 34.2458 34.9859 34.2453 34.9814C34.244 34.97 34.2421 34.959 34.2404 34.9479C34.2368 34.9243 34.2324 34.901 34.227 34.878C34.2244 34.8668 34.2218 34.8556 34.2188 34.8445C34.2113 34.8172 34.2026 34.7904 34.1928 34.7642C34.1909 34.7592 34.1895 34.754 34.1876 34.7491C34.1755 34.7185 34.1614 34.689 34.1462 34.6603C34.1445 34.6573 34.1435 34.654 34.1419 34.651C34.1417 34.6513 34.1415 34.6516 34.1414 34.6519C33.9868 34.3664 33.6853 34.1721 33.3378 34.1721H31.0137C31.0137 34.7012 30.5849 35.1301 30.0558 35.1301H2.66226C2.31499 35.1301 2.013 34.9364 1.85831 34.6511C1.77752 34.8002 1.73688 34.9742 1.75108 35.1586C1.78807 35.6388 2.20797 36.0001 2.68968 36.0001H31.0137H33.3378C33.3684 36.0001 33.3987 35.9984 33.4286 35.9955C33.4385 35.9945 33.4482 35.9925 33.4582 35.9913C33.4778 35.9887 33.4975 35.9861 33.5167 35.9823C33.5284 35.98 33.5397 35.9768 33.5512 35.974C33.5682 35.97 33.5853 35.966 33.6019 35.961C33.614 35.9574 33.6256 35.9529 33.6374 35.9489C33.653 35.9435 33.6685 35.9382 33.6836 35.932C33.6956 35.9271 33.7072 35.9215 33.7189 35.9161C33.7333 35.9095 33.7476 35.9029 33.7616 35.8956C33.7732 35.8895 33.7845 35.8828 33.7959 35.8762C33.8092 35.8684 33.8224 35.8606 33.8352 35.8523C33.8465 35.8449 33.8574 35.8373 33.8682 35.8295C33.8804 35.8207 33.8925 35.8118 33.9043 35.8025C33.9149 35.794 33.9252 35.7854 33.9354 35.7765C33.9466 35.7668 33.9576 35.7569 33.9683 35.7467C33.9782 35.7372 33.9879 35.7275 33.9974 35.7177C34.0075 35.7071 34.0172 35.6963 34.0268 35.6853C34.036 35.6748 34.0449 35.6643 34.0536 35.6534C34.0626 35.642 34.0711 35.6304 34.0796 35.6187Z" fill="#6EC102"/>
</g>
<defs>
<clipPath id="clip0">
<rect width="36" height="36" fill="white"/>
</clipPath>
</defs>
</svg>
