<svg width="35" height="35" viewBox="0 0 35 35" fill="none" xmlns="http://www.w3.org/2000/svg">
<path d="M33.3959 34.9996H1.60418C0.718213 34.9996 0 34.3059 0 33.4503V12.5934H35.0002V33.4503C35.0001 34.3059 34.2819 34.9996 33.3959 34.9996Z" fill="#D8ECFE"/>
<path d="M14.7521 19.3103H11.9813C11.6591 19.3103 11.3979 19.0581 11.3979 18.747V16.0709C11.3979 15.7598 11.6591 15.5076 11.9813 15.5076H14.7521C15.0743 15.5076 15.3354 15.7598 15.3354 16.0709V18.747C15.3355 19.0581 15.0743 19.3103 14.7521 19.3103Z" fill="#7A8C98"/>
<path d="M23.0195 19.3103H20.2486C19.9264 19.3103 19.6653 19.0581 19.6653 18.747V16.0709C19.6653 15.7598 19.9265 15.5076 20.2486 15.5076H23.0195C23.3417 15.5076 23.6028 15.7598 23.6028 16.0709V18.747C23.6029 19.0581 23.3417 19.3103 23.0195 19.3103Z" fill="#7A8C98"/>
<path d="M31.2875 19.3103H28.5166C28.1945 19.3103 27.9333 19.0581 27.9333 18.747V16.0709C27.9333 15.7598 28.1945 15.5076 28.5166 15.5076H31.2875C31.6097 15.5076 31.8708 15.7598 31.8708 16.0709V18.747C31.8708 19.0581 31.6097 19.3103 31.2875 19.3103Z" fill="#7A8C98"/>
<path d="M14.7521 25.6982H11.9813C11.6591 25.6982 11.3979 25.446 11.3979 25.1349V22.4588C11.3979 22.1476 11.6591 21.8954 11.9813 21.8954H14.7521C15.0743 21.8954 15.3354 22.1477 15.3354 22.4588V25.1349C15.3355 25.446 15.0743 25.6982 14.7521 25.6982Z" fill="#7A8C98"/>
<path d="M23.0195 25.6982H20.2486C19.9264 25.6982 19.6653 25.446 19.6653 25.1349V22.4588C19.6653 22.1476 19.9265 21.8954 20.2486 21.8954H23.0195C23.3417 21.8954 23.6028 22.1477 23.6028 22.4588V25.1349C23.6029 25.446 23.3417 25.6982 23.0195 25.6982Z" fill="#7A8C98"/>
<path d="M31.2875 25.6982H28.5166C28.1945 25.6982 27.9333 25.446 27.9333 25.1349V22.4588C27.9333 22.1476 28.1945 21.8954 28.5166 21.8954H31.2875C31.6097 21.8954 31.8708 22.1477 31.8708 22.4588V25.1349C31.8708 25.446 31.6097 25.6982 31.2875 25.6982Z" fill="#7A8C98"/>
<path d="M6.48408 25.6982H3.71319C3.391 25.6982 3.12988 25.446 3.12988 25.1349V22.4588C3.12988 22.1476 3.39107 21.8954 3.71319 21.8954H6.48408C6.80627 21.8954 7.06739 22.1477 7.06739 22.4588V25.1349C7.06739 25.446 6.8062 25.6982 6.48408 25.6982Z" fill="#7A8C98"/>
<path d="M14.7521 32.087H11.9813C11.6591 32.087 11.3979 31.8348 11.3979 31.5237V28.8476C11.3979 28.5364 11.6591 28.2842 11.9813 28.2842H14.7521C15.0743 28.2842 15.3354 28.5365 15.3354 28.8476V31.5237C15.3355 31.8348 15.0743 32.087 14.7521 32.087Z" fill="#7A8C98"/>
<path d="M23.0195 32.087H20.2486C19.9264 32.087 19.6653 31.8348 19.6653 31.5237V28.8476C19.6653 28.5364 19.9265 28.2842 20.2486 28.2842H23.0195C23.3417 28.2842 23.6028 28.5365 23.6028 28.8476V31.5237C23.6029 31.8348 23.3417 32.087 23.0195 32.087Z" fill="#7A8C98"/>
<path d="M6.48408 32.087H3.71319C3.391 32.087 3.12988 31.8348 3.12988 31.5237V28.8476C3.12988 28.5364 3.39107 28.2842 3.71319 28.2842H6.48408C6.80627 28.2842 7.06739 28.5365 7.06739 28.8476V31.5237C7.06739 31.8348 6.8062 32.087 6.48408 32.087Z" fill="#7A8C98"/>
<path d="M31.8705 12.5934V33.4503C31.8705 34.3059 31.1523 34.9996 30.2664 34.9996H33.3961C34.282 34.9996 35.0002 34.3059 35.0002 33.4503V12.5934H31.8705Z" fill="#C4E2FF"/>
<path d="M35.0001 12.5935H0V5.61862C0 4.76295 0.718213 4.06931 1.60418 4.06931H33.396C34.282 4.06931 35.0002 4.76295 35.0002 5.61862V12.5935H35.0001Z" fill="#FE646F"/>
<path d="M33.3961 4.06931H30.2664C31.1523 4.06931 31.8705 4.76295 31.8705 5.61862V12.5935H35.0003V5.61862C35.0003 4.76295 34.2821 4.06931 33.3961 4.06931Z" fill="#FD4755"/>
<path d="M13.4387 8.1396C12.5078 8.1396 11.7532 7.41075 11.7532 6.51168V1.62792C11.7532 0.728852 12.5078 0 13.4387 0C14.3696 0 15.1242 0.728852 15.1242 1.62792V6.51168C15.1242 7.41075 14.3697 8.1396 13.4387 8.1396Z" fill="#F9B1B1"/>
<path d="M5.31621 8.1396C4.38529 8.1396 3.63062 7.41075 3.63062 6.51168V1.62792C3.63062 0.728852 4.38522 0 5.31614 0C6.24706 0 7.00173 0.728852 7.00173 1.62792V6.51168C7.00173 7.41075 6.24713 8.1396 5.31621 8.1396Z" fill="#F9B1B1"/>
<path d="M21.5613 8.1396C20.6304 8.1396 19.8757 7.41075 19.8757 6.51168V1.62792C19.8757 0.728852 20.6303 0 21.5612 0C22.4921 0 23.2468 0.728852 23.2468 1.62792V6.51168C23.2468 7.41075 22.4922 8.1396 21.5613 8.1396Z" fill="#F9B1B1"/>
<path d="M29.6841 8.1396C28.7532 8.1396 27.9985 7.41075 27.9985 6.51168V1.62792C27.9985 0.728852 28.7531 0 29.684 0C30.6149 0 31.3696 0.728852 31.3696 1.62792V6.51168C31.3696 7.41075 30.615 8.1396 29.6841 8.1396Z" fill="#F9B1B1"/>
</svg>
