<svg width="36" height="36" viewBox="0 0 36 36" fill="none" xmlns="http://www.w3.org/2000/svg">
<path d="M18 0.210938C17.4175 0.210938 16.9453 0.683156 16.9453 1.26562V4.64062C16.9453 5.22309 17.4175 5.69531 18 5.69531C18.5825 5.69531 19.0547 5.22309 19.0547 4.64062V1.26562C19.0547 0.683156 18.5825 0.210938 18 0.210938Z" fill="#26879C"/>
<path d="M20.6016 0H15.3984C14.816 0 14.3438 0.472219 14.3438 1.05469C14.3438 1.63716 14.816 2.10938 15.3984 2.10938H20.6016C21.184 2.10938 21.6562 1.63716 21.6562 1.05469C21.6562 0.472219 21.184 0 20.6016 0Z" fill="#FD4755"/>
<path d="M18 0H15.3984C14.816 0 14.3438 0.472219 14.3438 1.05469C14.3438 1.63716 14.816 2.10938 15.3984 2.10938H18V0Z" fill="#FE646F"/>
<path d="M29.4359 8.33976C26.3814 5.27891 22.32 3.59317 17.9999 3.59317C13.6799 3.59317 9.61847 5.27891 6.56395 8.33976C3.51 11.4 1.82812 15.4688 1.82812 19.7964C1.82812 24.124 3.51 28.1928 6.56395 31.2531C9.61847 34.3139 13.6799 35.9997 17.9999 35.9997C22.32 35.9997 26.3814 34.3139 29.4359 31.2531C32.4899 28.1928 34.1717 24.124 34.1717 19.7964C34.1717 15.4688 32.4899 11.4 29.4359 8.33976Z" fill="#FD4755"/>
<path d="M17.9999 3.59317C13.6799 3.59317 9.61847 5.27891 6.56395 8.33976C3.51 11.4 1.82812 15.4688 1.82812 19.7964C1.82812 24.124 3.51 28.1928 6.56395 31.2531C9.61847 34.3139 13.6799 35.9997 17.9999 35.9997V3.59317Z" fill="#FE646F"/>
<path d="M18 7.6315C11.305 7.6315 5.85815 13.0887 5.85815 19.7966C5.85815 26.5045 11.305 31.9618 18 31.9618C24.695 31.9618 30.1418 26.5045 30.1418 19.7966C30.1418 13.0887 24.695 7.6315 18 7.6315Z" fill="#C4E2FF"/>
<path d="M18 7.6315C11.305 7.6315 5.85815 13.0887 5.85815 19.7966C5.85815 26.5045 11.305 31.9618 18 31.9618V7.6315Z" fill="#D8ECFE"/>
<path d="M18 10.2661C18.5825 10.2661 19.0547 9.79384 19.0547 9.21137V7.678C18.707 7.6479 18.3554 7.63159 18 7.63159C17.6446 7.63159 17.293 7.6479 16.9453 7.678V9.21137C16.9453 9.79384 17.4175 10.2661 18 10.2661Z" fill="#7A8C98"/>
<path d="M18 29.3269C17.4175 29.3269 16.9453 29.7991 16.9453 30.3816V31.915C17.293 31.9451 17.6446 31.9614 18 31.9614C18.3554 31.9614 18.707 31.9451 19.0547 31.915V30.3816C19.0547 29.7991 18.5825 29.3269 18 29.3269Z" fill="#7A8C98"/>
<path d="M30.0958 18.7423H28.5854C28.003 18.7423 27.5308 19.2146 27.5308 19.797C27.5308 20.3795 28.003 20.8517 28.5854 20.8517H30.0958C30.1258 20.504 30.142 20.1524 30.142 19.797C30.142 19.4417 30.1258 19.09 30.0958 18.7423Z" fill="#7A8C98"/>
<path d="M8.46935 19.797C8.46935 19.2146 7.99713 18.7423 7.41466 18.7423H5.90428C5.87433 19.09 5.85815 19.4417 5.85815 19.797C5.85815 20.1524 5.87433 20.504 5.90428 20.8517H7.41466C7.99713 20.8517 8.46935 20.3795 8.46935 19.797Z" fill="#7A8C98"/>
<path d="M20.6015 19.1876H19.1135V14.922C19.1135 14.3395 18.6413 13.8673 18.0588 13.8673C17.4764 13.8673 17.0042 14.3395 17.0042 14.922V20.2423C17.0042 20.8248 17.4764 21.297 18.0588 21.297H20.6015C21.184 21.297 21.6562 20.8248 21.6562 20.2423C21.6562 19.6599 21.184 19.1876 20.6015 19.1876Z" fill="#7A8C98"/>
</svg>
