<svg width="35" height="35" viewBox="0 0 35 35" fill="none" xmlns="http://www.w3.org/2000/svg">
<path d="M33.2976 9.77887H27.9187V2.02637H33.2976C33.786 2.02637 34.1819 2.42224 34.1819 2.9106V8.89471C34.1819 9.383 33.786 9.77887 33.2976 9.77887Z" fill="#C4E2FF"/>
<path d="M33.2976 17.5313H27.9187V9.77881H33.2976C33.786 9.77881 34.1819 10.1747 34.1819 10.663V16.6471C34.1819 17.1354 33.786 17.5313 33.2976 17.5313Z" fill="#B3DAFE"/>
<path d="M33.2976 25.2837H27.9187V17.5312H33.2976C33.786 17.5312 34.1819 17.9271 34.1819 18.4155V24.3996C34.1819 24.8879 33.786 25.2837 33.2976 25.2837Z" fill="#8AC9FE"/>
<path d="M33.2976 33.0362H27.9187V25.2837H33.2976C33.786 25.2837 34.1819 25.6796 34.1819 26.1679V32.152C34.1819 32.6403 33.786 33.0362 33.2976 33.0362Z" fill="#60B7FF"/>
<path d="M30.1078 35H5.34993C4.86157 35 4.4657 34.6041 4.4657 34.1158V0.884229C4.4657 0.395869 4.86157 0 5.34993 0H30.1078C30.5962 0 30.9921 0.395869 30.9921 0.884229V34.1158C30.992 34.6041 30.5961 35 30.1078 35Z" fill="#FE646F"/>
<path d="M6.62085 23.1697H2.31032C1.48625 23.1697 0.818237 22.5017 0.818237 21.6776C0.818237 20.8536 1.48625 20.1855 2.31032 20.1855H6.62085C7.44493 20.1855 8.11293 20.8536 8.11293 21.6776C8.113 22.5017 7.44493 23.1697 6.62085 23.1697Z" fill="#FFC4C8"/>
<path d="M6.62085 14.8147H2.31032C1.48625 14.8147 0.818237 14.1467 0.818237 13.3226C0.818237 12.4986 1.48625 11.8306 2.31032 11.8306H6.62085C7.44493 11.8306 8.11293 12.4986 8.11293 13.3226C8.113 14.1467 7.44493 14.8147 6.62085 14.8147Z" fill="#FFC4C8"/>
<path d="M6.62085 31.5247H2.31032C1.48625 31.5247 0.818237 30.8567 0.818237 30.0326C0.818237 29.2085 1.48625 28.5405 2.31032 28.5405H6.62085C7.44493 28.5405 8.11293 29.2085 8.11293 30.0326C8.113 30.8567 7.44493 31.5247 6.62085 31.5247Z" fill="#FFC4C8"/>
<path d="M6.62085 6.46023H2.31032C1.48625 6.46023 0.818237 5.79223 0.818237 4.96815C0.818237 4.14408 1.48625 3.47607 2.31032 3.47607H6.62085C7.44493 3.47607 8.11293 4.14408 8.11293 4.96815C8.113 5.79223 7.44493 6.46023 6.62085 6.46023Z" fill="#FFC4C8"/>
<path d="M30.1076 0H27.3948C27.8831 0 28.279 0.395869 28.279 0.884229V34.1158C28.279 34.6041 27.8831 35 27.3948 35H30.1076C30.596 35 30.9918 34.6041 30.9918 34.1158V0.884229C30.9918 0.395869 30.596 0 30.1076 0V0Z" fill="#FD4755"/>
<path d="M6.6209 20.1855H4.29565C5.11973 20.1855 5.78773 20.8536 5.78773 21.6776C5.78773 22.5017 5.11973 23.1697 4.29565 23.1697H6.62096C7.44503 23.1697 8.11304 22.5017 8.11304 21.6776C8.11304 20.8536 7.44497 20.1855 6.6209 20.1855Z" fill="#FDB4BA"/>
<path d="M6.6209 11.8306H4.29565C5.11973 11.8306 5.78773 12.4986 5.78773 13.3226C5.78773 14.1467 5.11973 14.8147 4.29565 14.8147H6.62096C7.44503 14.8147 8.11304 14.1467 8.11304 13.3226C8.11304 12.4986 7.44497 11.8306 6.6209 11.8306Z" fill="#FDB4BA"/>
<path d="M6.6209 28.54H4.29565C5.11973 28.54 5.78773 29.208 5.78773 30.0321C5.78773 30.8562 5.11973 31.5242 4.29565 31.5242H6.62096C7.44503 31.5242 8.11304 30.8562 8.11304 30.0321C8.11304 29.208 7.44497 28.54 6.6209 28.54Z" fill="#FDB4BA"/>
<path d="M6.6209 3.47607H4.29565C5.11973 3.47607 5.78773 4.14408 5.78773 4.96815C5.78773 5.79223 5.11973 6.46023 4.29565 6.46023H6.62096C7.44503 6.46023 8.11304 5.79223 8.11304 4.96815C8.11304 4.14408 7.44497 3.47607 6.6209 3.47607Z" fill="#FDB4BA"/>
<path d="M24.0177 26.8311H11.1661C10.4866 26.8311 9.93567 26.2801 9.93567 25.6006V9.39941C9.93567 8.71985 10.4866 8.16895 11.1661 8.16895H24.0177C24.6973 8.16895 25.2482 8.71985 25.2482 9.39941V25.6006C25.2482 26.2801 24.6973 26.8311 24.0177 26.8311Z" fill="#FD8087"/>
<path d="M23.5466 22.8981L21.995 20.2106C21.8296 19.9242 21.4634 19.8261 21.1771 19.9914L20.443 20.4153C19.9009 20.7282 19.2078 20.5425 18.8948 20.0005L16.2704 15.4547C15.9574 14.9127 16.1432 14.2195 16.6852 13.9066L17.4193 13.4827C17.7056 13.3174 17.8038 12.9512 17.6384 12.6648L16.0868 9.97733C15.8923 9.64038 15.4615 9.52499 15.1246 9.71948L14.482 10.0905L13.3326 10.754C11.6209 11.7423 11.0344 13.9311 12.0227 15.6428L16.6081 23.5849C17.5963 25.2967 19.7851 25.8832 21.4969 24.8949L22.6462 24.2314L23.2888 23.8604C23.6257 23.6658 23.7412 23.235 23.5466 22.8981Z" fill="#FD4755"/>
</svg>
