<svg width="20" height="20" viewBox="0 0 20 20" fill="none" xmlns="http://www.w3.org/2000/svg">
<path d="M18.3333 1.53846H15V0H13.3333V1.53846H6.66667V0H5V1.53846H1.66667C0.75 1.53846 0 2.23077 0 3.07692V18.4615C0 19.3077 0.75 20 1.66667 20H18.3333C19.25 20 20 19.3077 20 18.4615V3.07692C20 2.23077 19.25 1.53846 18.3333 1.53846ZM18.3333 18.4615H1.66667V7.69231H18.3333V18.4615ZM18.3333 6.15385H1.66667V3.07692H5V4.61538H6.66667V3.07692H13.3333V4.61538H15V3.07692H18.3333V6.15385Z" fill="#5C5F62"/>
</svg>