<svg width="16" height="16" viewBox="0 0 16 16" fill="none" xmlns="http://www.w3.org/2000/svg">
<path d="M7.56786 10.2658L4.35953 7.05837C4.24606 6.94355 4.18263 6.78849 4.1831 6.62705C4.18357 6.46562 4.2479 6.31093 4.36203 6.19676C4.47617 6.0826 4.63084 6.01823 4.79227 6.01772C4.95371 6.01721 5.10879 6.08059 5.22364 6.19403L7.38881 8.35859L7.38881 1.2781C7.38881 1.11603 7.45319 0.960588 7.5678 0.845982C7.6824 0.731377 7.83784 0.666992 7.99992 0.666992C8.162 0.666992 8.31743 0.731377 8.43204 0.845982C8.54665 0.960588 8.61103 1.11603 8.61103 1.2781V8.35859L10.7762 6.19403C10.8911 6.08059 11.0461 6.01721 11.2076 6.01772C11.369 6.01823 11.5237 6.0826 11.6378 6.19676C11.7519 6.31093 11.8163 6.46562 11.8167 6.62705C11.8172 6.78849 11.7538 6.94355 11.6403 7.05837L8.43197 10.2658C8.31737 10.3804 8.16196 10.4447 7.99992 10.4447C7.83787 10.4447 7.68246 10.3804 7.56786 10.2658ZM15.3333 14.1114V9.83366C15.3333 9.67158 15.2689 9.51614 15.1543 9.40154C15.0397 9.28693 14.8842 9.22255 14.7221 9.22255C14.5601 9.22255 14.4046 9.28693 14.29 9.40154C14.1754 9.51614 14.111 9.67158 14.111 9.83366V14.1114H1.88881V9.83366C1.88881 9.67158 1.82442 9.51614 1.70982 9.40154C1.59521 9.28693 1.43977 9.22255 1.2777 9.22255C1.11562 9.22255 0.960182 9.28693 0.845576 9.40154C0.730971 9.51614 0.666587 9.67158 0.666587 9.83366V14.1114C0.666951 14.4355 0.795837 14.7461 1.02497 14.9753C1.2541 15.2044 1.56477 15.3333 1.88881 15.3337H14.111C14.4351 15.3333 14.7457 15.2044 14.9749 14.9753C15.204 14.7461 15.3329 14.4355 15.3333 14.1114Z" fill="#5C5F62"/>
</svg>