<svg width="16" height="16" viewBox="0 0 16 16" fill="none" xmlns="http://www.w3.org/2000/svg">
<path d="M15.3334 3.06559C15.3334 3.3807 15.2737 3.68625 15.1544 3.98226C15.035 4.27827 14.8608 4.54085 14.6316 4.77002L5.19995 14.2017L0.666748 15.3332L1.79826 10.8L11.2299 1.36833C11.4591 1.13916 11.7217 0.964898 12.0177 0.84554C12.3137 0.726183 12.6192 0.666504 12.9343 0.666504C13.2638 0.666504 13.5741 0.72857 13.8653 0.852702C14.1565 0.976834 14.4096 1.14871 14.6244 1.36833C14.8393 1.58794 15.0111 1.84337 15.1401 2.1346C15.269 2.42584 15.3334 2.73617 15.3334 3.06559ZM3.00138 10.8931C3.50746 11.0602 3.94192 11.3251 4.30477 11.688C4.66762 12.0508 4.93498 12.4877 5.10685 12.9985L12.8484 5.24984L10.7501 3.15153L3.00138 10.8931ZM1.92716 14.0728L4.28328 13.4855C4.23554 13.2659 4.15915 13.0582 4.05412 12.8625C3.94908 12.6667 3.81779 12.4925 3.66024 12.3397C3.50269 12.1869 3.32842 12.058 3.13745 11.953C2.94648 11.8479 2.7388 11.7692 2.5144 11.7166L1.92716 14.0728ZM13.5001 4.59814C13.6194 4.47879 13.734 4.36659 13.8438 4.26156C13.9536 4.15652 14.0515 4.04671 14.1375 3.93213C14.2234 3.81755 14.2902 3.69103 14.338 3.55257C14.3857 3.41412 14.412 3.25418 14.4167 3.07275C14.4167 2.86746 14.3786 2.67649 14.3022 2.49984C14.2258 2.32319 14.1184 2.16564 13.9799 2.02718C13.8414 1.88873 13.6839 1.7813 13.5072 1.70492C13.3306 1.62853 13.1372 1.58794 12.9272 1.58317C12.7457 1.58317 12.5882 1.60704 12.4545 1.65479C12.3208 1.70253 12.1943 1.77176 12.075 1.86247C11.9556 1.95318 11.8434 2.05105 11.7384 2.15609C11.6333 2.26112 11.5211 2.37571 11.4018 2.49984L13.5001 4.59814Z" fill="#5C5F62"/>
</svg>
