<svg width="20" height="20" viewBox="0 0 20 20" fill="none" xmlns="http://www.w3.org/2000/svg">
<path d="M4.57146 1.42871C4.11681 1.42871 3.68077 1.60932 3.35928 1.93081C3.03779 2.2523 2.85718 2.68834 2.85718 3.143V16.8573C2.85718 17.3119 3.03779 17.748 3.35928 18.0695C3.68077 18.391 4.11681 18.5716 4.57146 18.5716H15.4286C15.8833 18.5716 16.3193 18.391 16.6408 18.0695C16.9623 17.748 17.1429 17.3119 17.1429 16.8573V8.27014C17.1429 7.74942 16.9357 7.25014 16.5679 6.88157L11.6172 1.93085C11.2957 1.60936 10.8597 1.42873 10.405 1.42871H4.57146ZM3.92861 3.143C3.92861 2.9725 3.99634 2.80899 4.11689 2.68843C4.23745 2.56787 4.40097 2.50014 4.57146 2.50014H10V7.143C10 7.52188 10.1505 7.88524 10.4185 8.15315C10.6864 8.42106 11.0497 8.57157 11.4286 8.57157H16.0715V16.8573C16.0715 17.0278 16.0037 17.1913 15.8832 17.3119C15.7626 17.4324 15.5991 17.5001 15.4286 17.5001H4.57146C4.40097 17.5001 4.23745 17.4324 4.11689 17.3119C3.99634 17.1913 3.92861 17.0278 3.92861 16.8573V3.143ZM15.6715 7.50014H11.4286C11.3339 7.50014 11.243 7.46251 11.1761 7.39553C11.1091 7.32856 11.0715 7.23772 11.0715 7.143V2.90014L15.6715 7.50014Z" fill="#5C5F62"/>
</svg>
