<svg width="36" height="36" viewBox="0 0 36 36" fill="none" xmlns="http://www.w3.org/2000/svg">
<path d="M32.8965 7.44831H26.6896C26.0069 7.44831 25.4482 6.8897 25.4482 6.20692V0L32.8965 7.44831Z" fill="#E5E5E5"/>
<path d="M32.8966 7.44831H26.6896C26.0069 7.44831 25.4483 6.8897 25.4483 6.20692V0H8.06902C7.38625 0 6.82764 0.558609 6.82764 1.24138V31.0345C6.82764 31.7172 7.38625 32.2758 8.06902 32.2758H31.6553C32.338 32.2758 32.8966 31.7172 32.8966 31.0345V7.44831H32.8966Z" fill="#EDEEEF"/>
<path d="M8.06905 32.2755C7.38628 32.2755 6.82767 31.7169 6.82767 31.0341V3.8479L6.20698 3.72373H4.3449C3.66212 3.72373 3.10352 4.28234 3.10352 4.96511V34.7582C3.10352 35.441 3.66212 35.9996 4.3449 35.9996H27.9311C28.6139 35.9996 29.1725 35.441 29.1725 34.7582V32.8961L29.1104 32.2754H8.06905V32.2755Z" fill="#9A9A9A"/>
<path d="M22.3449 8.06899H11.1725C10.8 8.06899 10.5518 7.82073 10.5518 7.4483C10.5518 7.07587 10.8 6.82761 11.1725 6.82761H22.3448C22.7173 6.82761 22.9655 7.07587 22.9655 7.4483C22.9656 7.82066 22.7173 8.06899 22.3449 8.06899Z" fill="#9A9A9A"/>
<path d="M29.7931 11.7927H11.1725C10.8 11.7927 10.5518 11.5444 10.5518 11.172C10.5518 10.7996 10.8 10.5513 11.1725 10.5513H29.7931C30.1656 10.5513 30.4138 10.7996 30.4138 11.172C30.4138 11.5444 30.1656 11.7927 29.7931 11.7927Z" fill="#9A9A9A"/>
<path d="M29.7931 15.5165H11.1725C10.8 15.5165 10.5518 15.2683 10.5518 14.8958C10.5518 14.5234 10.8 14.2752 11.1725 14.2752H29.7931C30.1656 14.2752 30.4138 14.5234 30.4138 14.8958C30.4138 15.2683 30.1656 15.5165 29.7931 15.5165Z" fill="#9A9A9A"/>
<path d="M29.7931 19.2412H11.1725C10.8 19.2412 10.5518 18.993 10.5518 18.6205C10.5518 18.2481 10.8 17.9999 11.1725 17.9999H29.7931C30.1656 17.9999 30.4138 18.2481 30.4138 18.6205C30.4138 18.993 30.1656 19.2412 29.7931 19.2412Z" fill="#9A9A9A"/>
<path d="M29.7931 22.9651H11.1725C10.8 22.9651 10.5518 22.7168 10.5518 22.3444C10.5518 21.972 10.8 21.7237 11.1725 21.7237H29.7931C30.1656 21.7237 30.4138 21.972 30.4138 22.3444C30.4138 22.7168 30.1656 22.9651 29.7931 22.9651Z" fill="#9A9A9A"/>
<path d="M29.7931 26.6898H11.1725C10.8 26.6898 10.5518 26.4415 10.5518 26.0691C10.5518 25.6967 10.8 25.4484 11.1725 25.4484H29.7931C30.1656 25.4484 30.4138 25.6967 30.4138 26.0691C30.4138 26.4415 30.1656 26.6898 29.7931 26.6898Z" fill="#9A9A9A"/>
</svg>
