<svg width="36" height="36" viewBox="0 0 36 36" fill="none" xmlns="http://www.w3.org/2000/svg">
<path d="M30 10.3506V33.8081C30 34.5773 29.3784 35.2003 28.6111 35.2003H6.38892C5.62155 35.2003 5 34.5773 5 33.8081V1.99787C5 1.22869 5.62155 0.605713 6.38892 0.605713H20.2778L30 10.3506Z" fill="url(#paint0_linear)"/>
<path d="M27.916 8.26245V33.8081C27.916 34.5772 27.2945 35.2003 26.5271 35.2003H28.6104C29.3778 35.2003 29.9993 34.5773 29.9993 33.8081V10.3506L27.916 8.26245Z" fill="#3EBAB4"/>
<path d="M30.0001 10.3506H21.6668C20.8997 10.3506 20.2778 9.72733 20.2778 8.95848V0.605713L30.0001 10.3506Z" fill="#72E1DC"/>
<path d="M24.2869 17.4852H10.7136C10.1369 17.4852 9.66943 17.0178 9.66943 16.4411C9.66943 15.8645 10.1369 15.397 10.7136 15.397H24.2869C24.8635 15.397 25.331 15.8644 25.331 16.4411C25.331 17.0177 24.8636 17.4852 24.2869 17.4852Z" fill="#FAFAFA"/>
<path d="M24.2874 21.6617H10.714C10.1374 21.6617 9.66992 21.1943 9.66992 20.6176C9.66992 20.041 10.1374 19.5735 10.714 19.5735H24.2874C24.864 19.5735 25.3315 20.0409 25.3315 20.6176C25.3315 21.1942 24.864 21.6617 24.2874 21.6617Z" fill="#FAFAFA"/>
<path d="M24.2874 25.8382H10.714C10.1374 25.8382 9.66992 25.3708 9.66992 24.7941C9.66992 24.2175 10.1374 23.75 10.714 23.75H24.2874C24.864 23.75 25.3315 24.2174 25.3315 24.7941C25.3315 25.3707 24.864 25.8382 24.2874 25.8382Z" fill="#FAFAFA"/>
<path d="M18.4404 30.0145H10.714C10.1374 30.0145 9.66992 29.5471 9.66992 28.9704C9.66992 28.3938 10.1374 27.9263 10.714 27.9263H18.4404C19.017 27.9263 19.4845 28.3937 19.4845 28.9704C19.4845 29.5471 19.0171 30.0145 18.4404 30.0145Z" fill="#FAFAFA"/>
<defs>
<linearGradient id="paint0_linear" x1="27.7127" y1="35.2003" x2="1.40814" y2="-7.11579" gradientUnits="userSpaceOnUse">
<stop stop-color="#4CC4BF"/>
<stop offset="1" stop-color="#59D5CD"/>
</linearGradient>
</defs>
</svg>
