<svg width="36" height="36" viewBox="0 0 36 36" fill="none" xmlns="http://www.w3.org/2000/svg">
<g clip-path="url(#clip0)">
<path d="M29.9478 32.3164V35.3793C29.9478 35.7223 29.67 36 29.3271 36H6.67291C6.32999 36 6.05225 35.7223 6.05225 35.3793V32.3164C6.05225 29.1168 8.66989 26.5791 11.8694 26.5481C12.9343 26.5368 13.8899 26.0097 14.4731 25.1787L14.4684 25.1741C15.1116 24.2592 15.0478 23.4348 15.0488 22.8086L15.0604 22.7799C12.279 21.627 10.3224 18.8852 10.3209 15.688V15.4351C9.20731 15.4351 8.38206 14.5519 8.38284 13.5305C8.38338 12.8077 8.38765 6.82853 8.38827 5.96923C8.38904 4.81247 9.32702 3.87449 10.4838 3.87527C11.4245 1.52877 13.6985 -0.00155048 16.2164 1.17887e-06L24.562 0.00620781C24.9957 0.00698364 25.2959 0.441448 25.1415 0.847206L24.6101 2.24835C24.4821 2.58739 24.6698 2.96367 25.0174 3.06452L25.4472 3.18943C26.7354 3.56346 27.7056 4.73729 27.7056 6.17948C27.7056 6.76212 27.7033 10.8554 27.7017 13.4172C27.7017 14.532 26.7971 15.4351 25.6823 15.4351V15.688C25.6799 18.8922 23.7163 21.6371 20.9272 22.7861V22.7869L20.9365 22.8086C20.9365 23.4065 20.8665 24.2488 21.5161 25.1749C22.082 25.9827 23.0419 26.5365 24.1306 26.5481C27.3301 26.5791 29.9478 29.1168 29.9478 32.3164Z" fill="#FFDFBA"/>
<path d="M29.9478 32.3162V35.3792C29.9478 35.7221 29.67 35.9998 29.3271 35.9998H6.67291C6.32999 35.9998 6.05225 35.7221 6.05225 35.3792V32.3162C6.05225 29.1167 8.66989 26.5789 11.8694 26.5479C12.9274 26.5366 13.8862 26.0158 14.4739 25.177C16.5723 27.5089 16.9638 27.9438 17.5384 28.5829C17.7851 28.8568 18.2149 28.8568 18.4616 28.5829C19.0495 27.929 19.4524 27.4815 21.5214 25.1823C22.0837 25.9849 23.0455 26.5364 24.1306 26.5479C27.3301 26.5789 29.9478 29.1167 29.9478 32.3162Z" fill="#54CAC5"/>
<path d="M22.4902 28.1061C25.561 28.2457 28.0079 30.7803 28.0079 33.8852V36.0001H29.3268C29.6696 36.0001 29.9475 35.7222 29.9475 35.3794V32.3213C29.9475 29.1207 27.3288 26.581 24.1283 26.548C23.6907 26.5435 23.2734 26.4517 22.8937 26.2891C22.884 26.3095 22.4951 28.0839 22.4902 28.1061Z" fill="#3EBAB4"/>
<path d="M22.8942 26.2892C22.8846 26.3097 22.1188 29.7931 22.1237 29.7709C22.0227 30.2292 21.4427 30.3768 21.1349 30.0225C19.0978 27.6767 19.3757 27.9826 19.1694 27.7965L21.5217 25.1826C21.863 25.6699 22.341 26.0518 22.8942 26.2892Z" fill="#72E1DC"/>
<path d="M14.474 25.177L16.7751 27.7341L14.8663 29.9961C14.5613 30.3576 13.9741 30.2126 13.8723 29.7507C13.8674 29.7285 13.1159 26.3092 13.1062 26.2887C13.6594 26.0514 14.1326 25.6642 14.474 25.177Z" fill="#72E1DC"/>
<path d="M27.7054 6.17948C27.7054 6.76212 27.703 10.8554 27.7015 13.4172C27.7015 14.532 26.7969 15.4351 25.682 15.4351C25.6828 14.591 25.6843 12.5405 25.6851 10.6537C25.6867 8.59696 24.0209 6.92893 21.9642 6.92738L14.0508 6.92194C11.9941 6.92039 10.3252 8.58687 10.3237 10.6436L10.3206 15.4351C9.20704 15.4351 8.38179 14.5519 8.38257 13.5305C8.38311 12.8077 8.38738 6.82854 8.388 5.96923C8.38878 4.81247 9.32675 3.87449 10.4835 3.87527C11.4243 1.52869 13.6982 -0.00155048 16.2161 1.17892e-06L24.5616 0.00628539C24.9958 0.00659572 25.2954 0.441137 25.1415 0.847051L24.61 2.24828C24.4815 2.58692 24.6692 2.9632 25.017 3.06437L25.4469 3.18943C26.7352 3.56346 27.7054 4.73729 27.7054 6.17948Z" fill="#42434D"/>
<path d="M21.9647 6.92755C24.0214 6.9291 25.6871 8.59713 25.6855 10.6539C25.6848 12.4116 25.6824 15.6882 25.6824 15.6882C25.6801 18.8924 23.7165 21.6372 20.9274 22.7863V22.787C15.8789 24.8689 10.3237 21.1446 10.321 15.6882C10.321 15.2834 10.3238 11.1622 10.3241 10.6438C10.3257 8.58705 11.9945 6.92057 14.0512 6.92212L21.9647 6.92755Z" fill="#FFDFBA"/>
<path d="M21.0355 24.0848C19.1241 24.885 17.0235 24.947 14.9639 24.0848C15.0691 23.6484 15.0515 23.3656 15.0515 22.8109L15.0632 22.7822C16.9315 23.5577 19.0642 23.5593 20.9362 22.7822L20.9478 22.8109C20.9478 23.3659 20.9303 23.6485 21.0355 24.0848Z" fill="#FFD6A6"/>
<path d="M16.2605 20.6431C17.5233 21.4331 16.5275 23.3706 15.1451 22.8157C12.303 21.675 10.3188 18.9053 10.3188 15.6834V10.6483C10.3188 9.86593 10.5601 9.13991 10.9723 8.5405C11.4888 7.7895 12.652 8.1619 12.6464 9.07334C12.6463 9.09235 12.6463 14.1127 12.6463 14.1317C12.6463 16.9644 14.1353 19.3136 16.2605 20.6431Z" fill="#FFE9CF"/>
<path d="M25.1414 0.847206C24.5913 2.29754 24.5992 2.26371 24.5859 2.33214L18.5438 2.32749C16.1986 2.32601 14.0648 3.65353 13.023 5.73206C12.8924 5.99273 12.656 6.18801 12.3709 6.24884C11.4255 6.45063 10.7164 7.29101 10.7157 8.29671L10.715 8.98332C10.4651 9.48295 10.3247 10.047 10.3239 10.6436L10.3221 13.554C10.3212 14.8107 8.3818 14.894 8.38281 13.5305C8.38336 12.8077 8.38762 6.82854 8.38824 5.96923C8.38902 4.81247 9.327 3.87449 10.4838 3.87527C11.4244 1.52877 13.6984 -0.00155048 16.2163 1.17887e-06L24.5619 0.00620781C24.9956 0.00698364 25.2958 0.441448 25.1414 0.847206Z" fill="#4D4E59"/>
<path d="M18.6207 28.4062V32.8967C18.6207 33.2397 18.343 33.5174 18.0001 33.5174C17.6571 33.5174 17.3794 33.2397 17.3794 32.8967V28.4062L17.5384 28.5831C17.7852 28.857 18.215 28.857 18.4617 28.5831L18.6207 28.4062Z" fill="#8BE9E4"/>
<path d="M14.5228 28.4355C14.6384 28.9607 14.7617 29.5201 14.8665 29.9957C14.5614 30.3573 13.9743 30.2128 13.8726 29.7508C13.5743 28.396 13.1127 26.3026 13.1062 26.2888C13.6594 26.0514 14.1326 25.6642 14.474 25.177L15.1365 25.914C14.567 26.6231 14.3257 27.5425 14.5228 28.4355Z" fill="#8BE9E4"/>
<path d="M13.5095 28.1061C10.4388 28.2457 7.99182 30.7803 7.99182 33.8852V36.0001H6.67291C6.33015 36.0001 6.05225 35.7222 6.05225 35.3794V32.3213C6.05225 29.1207 8.6709 26.581 11.8714 26.548C12.3091 26.5435 12.7264 26.4517 13.1061 26.2891C13.1157 26.3095 13.5046 28.0839 13.5095 28.1061Z" fill="#72E1DC"/>
</g>
<defs>
<clipPath id="clip0">
<rect width="36" height="36" fill="white"/>
</clipPath>
</defs>
</svg>
