<svg width="16" height="18" viewBox="0 0 16 18" fill="none" xmlns="http://www.w3.org/2000/svg">
<path d="M14.7062 12.7277C13.7031 11.5 12.9949 10.875 12.9949 7.49023C12.9949 4.39063 11.4121 3.28633 10.1094 2.75C9.93633 2.67891 9.77344 2.51562 9.7207 2.33789C9.49219 1.56016 8.85156 0.875 8 0.875C7.14844 0.875 6.50742 1.56055 6.28125 2.33867C6.22851 2.51836 6.06562 2.67891 5.89258 2.75C4.58828 3.28711 3.00703 4.3875 3.00703 7.49023C3.00508 10.875 2.29687 11.5 1.29375 12.7277C0.878123 13.2363 1.24219 14 1.96914 14H14.0348C14.7578 14 15.1195 13.234 14.7062 12.7277Z" stroke="#5C5F62" stroke-linecap="round" stroke-linejoin="round"/>
<path d="M10.5 14V14.625C10.5 15.288 10.2366 15.9239 9.76777 16.3928C9.29893 16.8616 8.66304 17.125 8 17.125C7.33696 17.125 6.70107 16.8616 6.23223 16.3928C5.76339 15.9239 5.5 15.288 5.5 14.625V14" stroke="#5C5F62" stroke-linecap="round" stroke-linejoin="round"/>
</svg>
