<svg width="36" height="36" viewBox="0 0 36 36" fill="none" xmlns="http://www.w3.org/2000/svg">
<path d="M15.448 26.5232V33.448C15.448 34.8575 16.5906 36.0001 18.0001 36.0001C19.4096 36.0001 20.5521 34.8575 20.5521 33.448C20.5521 32.7518 20.5521 27.3836 20.5521 26.5232H15.448Z" fill="#FEB137"/>
<path d="M18.0001 0C16.6785 0 15.6072 1.07135 15.6072 2.39295V6.55538H20.393C20.393 6.09757 20.393 2.8478 20.393 2.39295C20.3931 1.07135 19.3217 0 18.0001 0Z" fill="#FFD15B"/>
<path d="M18 0C17.7115 0 17.4349 0.0511172 17.1787 0.144703C18.0957 0.479813 18.7503 1.35991 18.7503 2.39295V6.55538H20.393C20.393 4.98066 20.393 3.93448 20.393 2.39295C20.393 1.07135 19.3216 0 18 0Z" fill="#FFC344"/>
<path d="M28.819 15.4769C28.4823 11.9881 27.0764 9.48545 27.1344 9.60188C23.3775 2.0622 12.6189 2.06909 8.86547 9.60188C7.94923 11.4406 7.37829 13.4319 7.18092 15.4769C5.64045 31.4389 5.81827 29.1182 5.81827 31.0425H30.3386C30.1161 28.9792 30.3485 31.3261 28.819 15.4769Z" fill="#FFC344"/>
<path d="M28.819 15.4769C28.4823 11.9881 27.0764 9.48543 27.1344 9.60186C25.4083 6.13743 21.8707 3.94775 18 3.94775C17.5848 3.94775 17.1738 3.97447 16.7681 4.02369C20.1445 4.43368 23.1295 6.50903 24.6706 9.60186C24.6126 9.48543 26.0184 11.9881 26.3551 15.4769L27.7178 29.598H30.1817L28.819 15.4769Z" fill="#FCA806"/>
<path d="M31.3581 29.5979C32.1559 29.5979 32.8026 30.2446 32.8026 31.0424C32.8026 31.8402 32.1559 32.4869 31.3581 32.4869H4.64201C3.84424 32.4869 3.19751 31.8402 3.19751 31.0424C3.19751 30.2446 3.84424 29.5979 4.64201 29.5979C4.96348 29.5979 31.7523 29.5979 31.3581 29.5979Z" fill="#FFD15B"/>
<path d="M31.3582 29.5979C31.2949 29.5979 30.3701 29.5979 28.8986 29.5979C28.8984 29.5979 28.8964 29.5979 28.8943 29.5979C29.6921 29.5979 30.3388 30.2446 30.3388 31.0424C30.3388 31.8402 29.6921 32.4869 28.8943 32.4869H31.3582C32.156 32.4869 32.8027 31.8402 32.8027 31.0424C32.8027 30.2446 32.1559 29.5979 31.3582 29.5979Z" fill="#FCA806"/>
</svg>
