<svg width="20" height="20" viewBox="0 0 20 20" fill="none" xmlns="http://www.w3.org/2000/svg">
<g clip-path="url(#clip0)">
<path d="M10.9191 1.96309L4.02839 11.8041C3.02787 13.233 3.20102 15.263 4.57565 16.3369C5.97624 17.4343 8.00124 17.1885 9.09861 15.7879C9.1342 15.7425 9.1685 15.6962 9.20162 15.6489L14.9351 7.4606C15.1392 7.16914 15.0684 6.7674 14.7769 6.56327C14.4854 6.35919 14.0837 6.43002 13.8796 6.7215L8.20932 14.8195C7.62937 15.6477 6.50501 15.9851 5.62312 15.4906C4.69013 14.9714 4.35463 13.7942 4.87382 12.8612C4.90611 12.8032 4.94136 12.7469 4.97945 12.6925L11.9747 2.70219C12.9952 1.24479 15.0039 0.890597 16.4613 1.91107C17.9187 2.93155 18.2729 4.94029 17.2525 6.39772L10.2415 16.4104C8.8904 18.34 6.2732 19.0752 4.22411 17.9134C2.05317 16.6913 1.28387 13.9406 2.506 11.7696C2.57837 11.6411 2.65693 11.5162 2.74153 11.3954L8.60184 3.02592C8.80593 2.73445 8.7351 2.33271 8.44362 2.12859C8.15214 1.92446 7.75042 1.99533 7.54629 2.28681L1.68597 10.6562C-0.150899 13.2795 0.486603 16.8952 3.10992 18.732L3.10997 18.7321L3.10997 18.7321C6.27663 20.9494 9.8083 19.2756 11.2865 17.1645L18.308 7.13675C19.7367 5.09637 19.2408 2.28413 17.2004 0.855476C15.16 -0.57313 12.3478 -0.0772616 10.9191 1.96309Z" fill="black"/>
</g>
<defs>
<clipPath id="clip0">
<rect width="20" height="20" fill="white"/>
</clipPath>
</defs>
</svg>
