<svg width="16" height="16" viewBox="0 0 16 16" fill="none" xmlns="http://www.w3.org/2000/svg">
<path fill-rule="evenodd" clip-rule="evenodd" d="M11.8734 13.8332H15.0016V15H10.9178L10.3344 14.4166V10.3327H11.5012V12.6664C12.547 11.8817 13.2989 10.7685 13.6363 9.50535C13.9737 8.2422 13.877 6.90233 13.3618 5.7007C12.8466 4.49907 11.9426 3.50533 10.795 2.87892C9.64743 2.25251 8.32267 2.02973 7.03331 2.24633C5.74394 2.46294 4.5647 3.10636 3.68478 4.07338C2.80486 5.04039 2.27526 6.27495 2.18096 7.57898C2.08665 8.88301 2.4331 10.1809 3.16473 11.2645C3.89635 12.348 4.97074 13.1544 6.21553 13.5543L5.86315 14.6675C4.35256 14.1831 3.05126 13.2 2.17243 11.8794C1.29361 10.5587 0.889354 8.97874 1.0259 7.39828C1.16245 5.81782 1.83171 4.33059 2.92404 3.18024C4.01636 2.02988 5.46698 1.2846 7.03826 1.0665C8.60954 0.848392 10.2083 1.17039 11.5727 1.97974C12.937 2.78909 13.986 4.03781 14.5479 5.52132C15.1097 7.00483 15.1511 8.63518 14.6652 10.1453C14.1793 11.6554 13.195 12.9557 11.8734 13.8332Z" fill="#5C5F62"/>
</svg>