<svg width="16" height="16" viewBox="0 0 16 16" fill="none" xmlns="http://www.w3.org/2000/svg">
<path d="M0.195356 14.8619L4.17469 10.8825C3.09027 9.55625 2.55711 7.86391 2.68546 6.15556C2.81382 4.44721 3.59388 2.85354 4.8643 1.7042C6.13472 0.554862 7.7983 -0.0622172 9.51093 -0.019396C11.2236 0.0234252 12.8542 0.72287 14.0656 1.93426C15.277 3.14566 15.9765 4.77632 16.0193 6.48895C16.0621 8.20158 15.445 9.86516 14.2957 11.1356C13.1463 12.406 11.5527 13.1861 9.84432 13.3144C8.13596 13.4428 6.44363 12.9096 5.11736 11.8252L1.13802 15.8045C1.01229 15.926 0.843887 15.9932 0.66909 15.9916C0.494292 15.9901 0.327084 15.92 0.203478 15.7964C0.0798731 15.6728 0.0097599 15.5056 0.00824165 15.3308C0.0067215 15.156 0.0739183 14.9876 0.195356 14.8619ZM9.33336 11.9999C10.3882 11.9999 11.4193 11.6871 12.2964 11.101C13.1735 10.515 13.857 9.68204 14.2607 8.7075C14.6644 7.73296 14.77 6.6606 14.5642 5.62604C14.3584 4.59147 13.8505 3.64116 13.1046 2.89528C12.3587 2.1494 11.4084 1.64145 10.3738 1.43567C9.33927 1.22988 8.26692 1.3355 7.29238 1.73916C6.31784 2.14283 5.48489 2.82642 4.89885 3.70348C4.31282 4.58054 4.00002 5.61169 4.00002 6.66652C4.00161 8.08052 4.56402 9.43615 5.56388 10.436C6.56373 11.4359 7.91936 11.9983 9.33336 11.9999Z" fill="#9A9A9A"/>
</svg>