<svg width="36" height="36" viewBox="0 0 36 36" fill="none" xmlns="http://www.w3.org/2000/svg">
<g clip-path="url(#clip0)">
<path d="M31.45 18C31.45 17.4703 31.419 16.948 31.3592 16.4344C31.2823 15.7739 31.544 15.1191 32.0438 14.6806L34.1014 12.8754C34.7998 12.2627 34.9568 11.2367 34.4735 10.4432L32.2728 6.83012C31.7895 6.03664 30.8058 5.70537 29.941 6.04482L27.376 7.05155C26.7552 7.29522 26.0574 7.20988 25.5044 6.83725C24.9101 6.43694 24.2822 6.08287 23.6257 5.78012C23.0216 5.50151 22.5879 4.95042 22.4733 4.29515L21.9992 1.58301C21.8391 0.667765 21.0445 0 20.1154 0H15.8849C14.9559 0 14.1613 0.667765 14.0013 1.58294L13.5272 4.29508C13.4126 4.95035 12.9788 5.50151 12.3747 5.78005C11.7183 6.0828 11.0903 6.43687 10.4961 6.83718C9.94297 7.20974 9.24521 7.29508 8.62446 7.05148L6.05935 6.04475C5.1945 5.70537 4.21086 6.03664 3.72761 6.83005L1.52695 10.4431C1.0437 11.2366 1.20062 12.2626 1.89902 12.8753L3.95667 14.6805C4.4565 15.119 4.71817 15.7739 4.64123 16.4343C4.58137 16.9479 4.55046 17.4703 4.55046 17.9999C4.55046 18.5296 4.58144 19.052 4.64123 19.5656C4.71817 20.226 4.4565 20.8808 3.95667 21.3193L1.89902 23.1246C1.20062 23.7373 1.0437 24.7633 1.52695 25.5568L3.72761 29.1698C4.21086 29.9633 5.19457 30.2946 6.05935 29.9551L8.62438 28.9484C9.24521 28.7047 9.94297 28.7901 10.496 29.1627C11.0902 29.563 11.7182 29.9171 12.3747 30.2198C12.9788 30.4984 13.4125 31.0495 13.5271 31.7048L14.0012 34.4169C14.1613 35.3322 14.9559 35.7176 15.8849 35.7176H20.1154C21.0445 35.7176 21.8391 35.3322 21.9991 34.4171L22.4732 31.7049C22.5878 31.0497 23.0216 30.4985 23.6257 30.22C24.2821 29.9172 24.9101 29.5631 25.5043 29.1628C26.0574 28.7903 26.7552 28.7049 27.3759 28.9485L29.941 29.9552C30.8058 30.2947 31.7895 29.9634 32.2727 29.17L34.4734 25.5569C34.9566 24.7634 34.7997 23.7374 34.1013 23.1247L32.0437 21.3195C31.5438 20.881 31.2821 20.2261 31.3591 19.5657C31.4191 19.052 31.45 18.5297 31.45 18Z" fill="url(#paint0_linear)"/>
<path d="M18.0003 28.9942C24.0722 28.9942 28.9945 24.072 28.9945 18C28.9945 11.9281 24.0722 7.00586 18.0003 7.00586C11.9284 7.00586 7.0061 11.9281 7.0061 18C7.0061 24.072 11.9284 28.9942 18.0003 28.9942Z" fill="url(#paint1_linear)"/>
<path d="M20.1155 36C21.0446 36 21.8392 35.3323 21.9991 34.4171L22.4733 31.705C22.5878 31.0497 23.0216 30.4985 23.6257 30.22C24.2822 29.9172 24.9101 29.5632 25.5043 29.1629C26.0575 28.7903 26.7552 28.705 27.376 28.9486L29.941 29.9553C30.8059 30.2947 31.7895 29.9634 32.2728 29.17L34.4734 25.5569C34.9567 24.7635 34.7997 23.7375 34.1013 23.1247L32.0437 21.3195C31.5439 20.881 31.2822 20.2262 31.3591 19.5658C31.395 19.2579 31.4191 18.9464 31.4338 18.6325L24.6575 11.8562C24.2359 11.3996 23.768 10.9863 23.2611 10.6242C22.8518 10.3318 22.2827 10.628 22.2827 11.1311V17.1108C22.2827 17.7288 22.0018 18.306 21.5313 18.689C21.4425 18.6037 13.6418 10.8166 13.5768 10.7379C13.3817 10.502 13.0197 10.5648 12.7344 10.7689C10.4332 12.4152 9.07661 14.9708 9.08205 18.0168C9.08671 20.6392 10.0605 22.9959 11.8401 24.6458L13.7884 26.6009L13.859 31.1501C13.859 32.2453 13.8126 33.3384 14.0012 34.4173C14.1613 35.3323 14.9559 36 15.885 36H20.1155Z" fill="url(#paint2_linear)"/>
<path d="M34.4736 25.5564L32.2734 29.1698C31.7899 29.9632 30.8059 30.2943 29.9412 29.9554L27.376 28.9482C26.7555 28.7046 26.0574 28.79 25.5047 29.1627C24.9103 29.563 24.2821 29.9173 23.6256 30.2202C23.0221 30.4983 22.588 31.0496 22.4736 31.7046L21.9993 34.4173C21.839 35.3321 21.0449 35.7882 20.116 35.7882H15.8849C15.4205 35.7882 14.9899 35.6216 14.6553 35.3399C14.4845 35.1966 14.339 35.2354 14.2268 35.0399C14.5085 35.2023 14.8346 35.294 15.179 35.294H19.4101C20.339 35.294 21.1332 34.6263 21.2934 33.7114C21.3873 33.1721 21.4586 32.6286 21.5059 32.0837C21.5532 31.5387 21.5772 30.991 21.5772 30.4439V25.279C24.4205 23.7507 26.3539 20.7479 26.3539 17.294C26.3539 14.9752 25.4828 12.8597 24.0492 11.2573C24.2616 11.4465 24.4642 11.6463 24.6576 11.8559L31.4341 18.6324C31.4193 18.9465 31.3953 19.2578 31.3593 19.5656C31.2823 20.2263 31.5442 20.8806 32.044 21.3197L34.1016 23.1246C34.7997 23.7373 34.9572 24.763 34.4736 25.5564Z" fill="url(#paint3_linear)"/>
<path d="M21.9991 34.4171C22.1877 33.3383 22.2825 32.2451 22.2825 31.1499V23.6707H13.7178V31.1499C13.7178 32.2451 13.8126 33.3383 14.0012 34.4171C14.1612 35.3323 14.9558 36.0001 15.8849 36.0001H20.1154C21.0445 36.0001 21.8391 35.3323 21.9991 34.4171Z" fill="url(#paint4_linear)"/>
<path d="M13.7178 25.9877L22.0199 34.2898C22.194 33.2523 22.2825 32.2021 22.2825 31.1499V23.6707H13.7178V25.9877Z" fill="url(#paint5_linear)"/>
<path d="M27.0595 17.9999C27.0595 23.0032 23.0036 27.0591 18.0003 27.0592C12.997 27.0593 8.94983 23.0197 8.94093 18.0164C8.9355 14.9705 10.4332 12.2737 12.7344 10.6274C13.1457 10.3332 13.7176 10.6254 13.7176 11.131V17.1106C13.7176 17.8378 14.1055 18.5098 14.7353 18.8734L16.9823 20.1708C17.6122 20.5345 18.3882 20.5345 19.018 20.1708L21.2651 18.8734C21.8949 18.5098 22.2828 17.8378 22.2828 17.1106V11.1308C22.2828 10.6278 22.8519 10.3315 23.2612 10.6239C25.561 12.267 27.0595 14.9586 27.0595 17.9999Z" fill="url(#paint6_linear)"/>
<path d="M11.296 18.7632C11.296 19.9016 11.9033 20.9536 12.8892 21.5228L16.4068 23.5539C17.3928 24.1231 18.6076 24.1231 19.5936 23.5539L23.1112 21.5228C24.0971 20.9536 24.7045 19.9016 24.7045 18.7632V11.9083C24.2707 11.4312 23.7872 11 23.2612 10.6242C22.8519 10.3318 22.2828 10.628 22.2828 11.1311V17.1108C22.2828 17.838 21.8949 18.51 21.2651 18.8737L19.018 20.1711C18.3882 20.5348 17.6122 20.5348 16.9823 20.1711L14.7353 18.8737C14.1055 18.5101 13.7176 17.8381 13.7176 17.1108V11.1313C13.7176 10.6256 13.1457 10.3335 12.7344 10.6277C12.2103 11.0026 11.7284 11.4327 11.2959 11.9083V18.7632H11.296Z" fill="url(#paint7_linear)"/>
</g>
<defs>
<linearGradient id="paint0_linear" x1="8.92269" y1="8.92249" x2="27.9183" y2="27.9181" gradientUnits="userSpaceOnUse">
<stop stop-color="#72E1DC"/>
<stop offset="1" stop-color="#3EBAB4"/>
</linearGradient>
<linearGradient id="paint1_linear" x1="30.4093" y1="30.4091" x2="4.59784" y2="4.5976" gradientUnits="userSpaceOnUse">
<stop stop-color="#72E1DC"/>
<stop offset="1" stop-color="#3EBAB4"/>
</linearGradient>
<linearGradient id="paint2_linear" x1="19.5873" y1="23.4263" x2="7.13734" y2="17.2366" gradientUnits="userSpaceOnUse">
<stop stop-color="#4C98F1" stop-opacity="0"/>
<stop offset="0.5631" stop-color="#46C8B1" stop-opacity="0.563"/>
<stop offset="1" stop-color="#42A6AC"/>
</linearGradient>
<linearGradient id="paint3_linear" x1="29.5556" y1="28.2525" x2="19.6027" y2="23.4525" gradientUnits="userSpaceOnUse">
<stop stop-color="#4CF1D3" stop-opacity="0"/>
<stop offset="0.5631" stop-color="#46C8C0" stop-opacity="0.563"/>
<stop offset="1" stop-color="#42AC99"/>
</linearGradient>
<linearGradient id="paint4_linear" x1="17.685" y1="28.8328" x2="23.0872" y2="34.235" gradientUnits="userSpaceOnUse">
<stop stop-color="#E3E5E4"/>
<stop offset="1" stop-color="#CBD0E4"/>
</linearGradient>
<linearGradient id="paint5_linear" x1="20.6298" y1="30.7807" x2="17.0534" y2="22.6866" gradientUnits="userSpaceOnUse">
<stop stop-color="#CBD0E4" stop-opacity="0"/>
<stop offset="1" stop-color="#6A7D83"/>
</linearGradient>
<linearGradient id="paint6_linear" x1="14.6814" y1="14.6834" x2="26.511" y2="26.513" gradientUnits="userSpaceOnUse">
<stop stop-color="#E3E5E4"/>
<stop offset="1" stop-color="#CBD0E4"/>
</linearGradient>
<linearGradient id="paint7_linear" x1="23.0296" y1="21.0178" x2="9.61766" y2="7.60585" gradientUnits="userSpaceOnUse">
<stop stop-color="#E3E5E4"/>
<stop offset="1" stop-color="#CBD0E4"/>
</linearGradient>
<clipPath id="clip0">
<rect width="36" height="36" fill="white"/>
</clipPath>
</defs>
</svg>
