<svg width="37" height="36" viewBox="0 0 37 36" fill="none" xmlns="http://www.w3.org/2000/svg">
<g clip-path="url(#clip0)">
<path d="M18.3383 0H18.3323C18.1266 0.000518532 17.9288 0.0791899 17.779 0.220077C17.6292 0.360965 17.5385 0.553534 17.5253 0.758777C17.4945 1.24673 17.4687 1.73529 17.448 2.22448C17.4437 2.33025 17.4609 2.4358 17.4986 2.53472C17.5362 2.63365 17.5936 2.7239 17.6672 2.8C17.7408 2.8761 17.8291 2.93646 17.9267 2.97743C18.0243 3.0184 18.1292 3.03913 18.235 3.03835H18.2397C26.4895 3.03835 33.1772 9.72614 33.1772 17.9759C33.1772 26.2257 26.483 32.9158 18.2397 32.9158C9.99636 32.9158 3.30208 26.2257 3.30208 17.9759C3.29741 14.8982 4.24788 11.8949 6.02239 9.38031C5.17565 8.86829 4.3465 8.32293 3.47615 7.84332C1.39837 10.8751 0.303065 14.4724 0.338735 18.1477C0.419288 28.1275 8.54639 36.1009 18.5258 35.9991C28.3806 35.8986 36.3383 27.8784 36.3383 18C36.3383 8.05905 28.2792 0 18.3383 0Z" fill="url(#paint0_linear)"/>
<path d="M0.938164 7.74667C2.16082 7.24761 5.88156 5.89209 6.5945 5.63283C6.60824 5.62769 6.62301 5.62588 6.63758 5.62756C6.65215 5.62924 6.66612 5.63437 6.67833 5.6425C6.69054 5.65064 6.70063 5.66156 6.70779 5.67437C6.71495 5.68718 6.71896 5.7015 6.7195 5.71616L7.03893 12.054C7.04558 12.1851 7.02097 12.316 6.96712 12.4357C6.91327 12.5555 6.83173 12.6608 6.72922 12.7428L5.28389 13.9002C5.27172 13.9102 5.25721 13.917 5.24171 13.9198C5.22621 13.9227 5.21024 13.9215 5.19531 13.9165C5.18038 13.9114 5.16699 13.9026 5.1564 13.891C5.14582 13.8793 5.13839 13.8651 5.13482 13.8498L4.02373 9.37441C4.02059 9.36106 4.01453 9.34858 4.00598 9.33787C3.99743 9.32715 3.98661 9.31847 3.97429 9.31245C3.96198 9.30642 3.94848 9.30321 3.93478 9.30304C3.92107 9.30286 3.90749 9.30573 3.89503 9.31144L0.485398 10.8299C0.424218 10.8574 0.356358 10.8664 0.290144 10.8558C0.22393 10.8452 0.16224 10.8156 0.112643 10.7704C0.0630455 10.7253 0.0276977 10.6667 0.0109357 10.6018C-0.00582626 10.5368 -0.00327358 10.4684 0.0182806 10.4049L0.884925 7.80361C0.889125 7.79082 0.896065 7.7791 0.90526 7.76926C0.914455 7.75943 0.925684 7.75172 0.938164 7.74667V7.74667Z" fill="url(#paint1_linear)"/>
<path opacity="0.56" d="M18.3661 35.357C15.086 35.3603 11.8721 34.434 9.0969 32.6853C9.08131 32.6755 9.07026 32.6599 9.06618 32.6419C9.0621 32.6239 9.06532 32.6051 9.07515 32.5895C9.08497 32.5739 9.10058 32.5629 9.11856 32.5588C9.13653 32.5547 9.15538 32.5579 9.17098 32.5677C12.5163 34.6756 16.4842 35.5702 20.4103 35.102C24.3365 34.6338 27.9827 32.831 30.7385 29.9956C30.7449 29.989 30.7525 29.9838 30.7609 29.9802C30.7693 29.9766 30.7783 29.9747 30.7874 29.9746C30.7966 29.9745 30.8056 29.9762 30.8141 29.9796C30.8226 29.983 30.8303 29.988 30.8369 29.9944C30.8434 30.0008 30.8486 30.0084 30.8522 30.0168C30.8558 30.0252 30.8577 30.0342 30.8578 30.0434C30.8579 30.0525 30.8562 30.0616 30.8528 30.07C30.8494 30.0785 30.8444 30.0863 30.838 30.0928C29.2179 31.7611 27.279 33.0869 25.1365 33.9912C22.994 34.8955 20.6916 35.36 18.3661 35.357V35.357Z" fill="white"/>
<path opacity="0.56" d="M31.751 29.0419C31.7378 29.0419 31.7249 29.0381 31.7138 29.031C31.7026 29.0239 31.6938 29.0138 31.6882 29.0019C31.6826 28.9899 31.6805 28.9766 31.6822 28.9636C31.6839 28.9505 31.6893 28.9382 31.6977 28.928C32.2536 28.2536 32.7578 27.5381 33.206 26.7878C33.2155 26.772 33.2308 26.7605 33.2487 26.756C33.2666 26.7515 33.2855 26.7543 33.3014 26.7637C33.3172 26.7732 33.3286 26.7885 33.3332 26.8064C33.3377 26.8243 33.3349 26.8433 33.3254 26.8591C32.8738 27.6153 32.3659 28.3365 31.8061 29.0165C31.7994 29.0246 31.791 29.0311 31.7814 29.0355C31.7719 29.0399 31.7615 29.0421 31.751 29.0419Z" fill="white"/>
<path opacity="0.56" d="M33.5764 26.3482C33.5647 26.3482 33.5532 26.3452 33.543 26.3394C33.5274 26.3306 33.5157 26.3159 33.5107 26.2987C33.5056 26.2814 33.5074 26.2628 33.5157 26.2469C33.8547 25.6285 34.1556 24.9899 34.4166 24.3348C34.4234 24.3177 34.4368 24.304 34.4537 24.2967C34.4706 24.2894 34.4898 24.2891 34.5069 24.2959C34.524 24.3028 34.5378 24.3161 34.545 24.333C34.5523 24.35 34.5526 24.3691 34.5458 24.3862C34.2825 25.0467 33.9791 25.6904 33.6375 26.314C33.6311 26.3245 33.6222 26.3332 33.6114 26.3392C33.6007 26.3452 33.5886 26.3483 33.5764 26.3482V26.3482Z" fill="white"/>
<path opacity="0.56" d="M1.1221 8.07043C1.10577 8.07042 1.08998 8.06465 1.07748 8.05414C1.06499 8.04363 1.0566 8.02906 1.05378 8.01298C1.05096 7.9969 1.0539 7.98034 1.06207 7.96621C1.07025 7.95208 1.08314 7.94128 1.09849 7.93572L6.04835 6.12604C6.05713 6.1218 6.0667 6.11946 6.07645 6.11917C6.08619 6.11888 6.09589 6.12064 6.10491 6.12435C6.11393 6.12805 6.12206 6.13361 6.12879 6.14067C6.13552 6.14772 6.14068 6.15612 6.14395 6.1653C6.14722 6.17449 6.14852 6.18426 6.14776 6.19397C6.147 6.20369 6.14421 6.21314 6.13956 6.22171C6.13491 6.23028 6.1285 6.23777 6.12077 6.2437C6.11303 6.24963 6.10413 6.25387 6.09465 6.25613L1.14617 8.0658C1.13852 8.0689 1.13034 8.07047 1.1221 8.07043V8.07043Z" fill="white"/>
<g opacity="0.64">
<path opacity="0.64" d="M4.94195 22.7609C4.90949 22.7608 4.87793 22.7502 4.85193 22.7308C4.82592 22.7114 4.80684 22.6841 4.79751 22.653C4.77483 22.5743 4.75122 22.4956 4.73177 22.4165C4.72376 22.3785 4.73066 22.339 4.75103 22.306C4.7714 22.273 4.80369 22.2491 4.8412 22.2393C4.87871 22.2295 4.91856 22.2345 4.95249 22.2532C4.98641 22.272 5.01182 22.3031 5.02343 22.3401C5.04318 22.4166 5.06432 22.4925 5.08685 22.5678C5.09748 22.606 5.09271 22.6467 5.07358 22.6814C5.05444 22.716 5.02247 22.7417 4.98454 22.753C4.97081 22.7577 4.95646 22.7604 4.94195 22.7609V22.7609Z" fill="white"/>
<path opacity="0.64" d="M4.71248 21.7456C4.67683 21.7457 4.64231 21.7331 4.61515 21.71C4.58798 21.6869 4.56996 21.6549 4.56433 21.6197C4.53748 21.4553 4.51526 21.2882 4.4986 21.1229C4.49638 21.0841 4.50923 21.046 4.53445 21.0164C4.55966 20.9868 4.59532 20.9681 4.63398 20.9642C4.67264 20.9603 4.71133 20.9714 4.742 20.9953C4.77266 21.0191 4.79293 21.0539 4.79859 21.0924C4.81479 21.2516 4.83609 21.4127 4.86155 21.5715C4.86472 21.591 4.86402 21.611 4.85947 21.6302C4.85493 21.6495 4.84664 21.6676 4.83507 21.6837C4.82351 21.6997 4.8089 21.7133 4.79207 21.7237C4.77524 21.7341 4.75654 21.7411 4.73702 21.7442C4.72889 21.7454 4.72068 21.7458 4.71248 21.7456V21.7456ZM4.60554 20.4595C4.56579 20.4595 4.52766 20.4438 4.49947 20.4158C4.47128 20.3878 4.45532 20.3497 4.45508 20.31V20.2554C4.45508 20.1081 4.45924 19.9581 4.46665 19.8095C4.46748 19.7897 4.47225 19.7702 4.4807 19.7523C4.48914 19.7343 4.50109 19.7182 4.51584 19.705C4.53058 19.6917 4.54783 19.6815 4.56658 19.6749C4.58532 19.6684 4.60517 19.6657 4.62498 19.667C4.66482 19.669 4.70222 19.6868 4.72896 19.7164C4.7557 19.746 4.76959 19.785 4.76757 19.8248C4.76016 19.9683 4.75646 20.1132 4.75646 20.2554V20.3081C4.75664 20.3279 4.75291 20.3475 4.74549 20.3659C4.73806 20.3842 4.72708 20.4009 4.71318 20.4149C4.69929 20.429 4.68274 20.4402 4.66451 20.4478C4.64627 20.4555 4.6267 20.4595 4.60693 20.4595H4.60554ZM4.69535 19.1725C4.6881 19.173 4.68084 19.173 4.67359 19.1725C4.654 19.1697 4.63517 19.163 4.61816 19.1529C4.60116 19.1428 4.58632 19.1294 4.57449 19.1135C4.56267 19.0977 4.55409 19.0796 4.54925 19.0604C4.5444 19.0412 4.5434 19.0213 4.54628 19.0017C4.57035 18.8369 4.59952 18.6707 4.63331 18.5086C4.63733 18.4893 4.64511 18.4709 4.65623 18.4545C4.66735 18.4382 4.68158 18.4242 4.69811 18.4133C4.71464 18.4025 4.73314 18.395 4.75257 18.3913C4.77199 18.3876 4.79196 18.3877 4.81132 18.3918C4.83068 18.3958 4.84907 18.4036 4.86542 18.4147C4.88177 18.4258 4.89578 18.44 4.90663 18.4565C4.91749 18.4731 4.92498 18.4916 4.92868 18.511C4.93239 18.5304 4.93223 18.5504 4.92821 18.5698C4.89581 18.7262 4.86757 18.8864 4.84442 19.0452C4.8388 19.0807 4.8207 19.113 4.79337 19.1364C4.76604 19.1597 4.73129 19.1725 4.69535 19.1725V19.1725ZM4.9796 17.9161C4.95599 17.9162 4.93267 17.9108 4.91156 17.9002C4.89044 17.8896 4.87212 17.8742 4.85809 17.8552C4.84406 17.8362 4.83471 17.8142 4.83081 17.7909C4.8269 17.7676 4.82855 17.7437 4.83562 17.7212C4.8847 17.5628 4.93932 17.4031 4.99766 17.2471C5.01172 17.2097 5.04005 17.1795 5.07643 17.163C5.11281 17.1465 5.15425 17.1451 5.19163 17.1591C5.22902 17.1732 5.25929 17.2015 5.27579 17.2379C5.29228 17.2743 5.29365 17.3157 5.27959 17.3531C5.22358 17.5036 5.1708 17.6573 5.12358 17.8101C5.11407 17.8408 5.09496 17.8677 5.06905 17.8868C5.04313 17.9059 5.01178 17.9161 4.9796 17.9161V17.9161ZM5.45459 16.717C5.43181 16.7169 5.40936 16.7117 5.38885 16.7018C5.37104 16.6931 5.35511 16.6809 5.34198 16.6661C5.32885 16.6512 5.31877 16.634 5.31232 16.6152C5.30587 16.5965 5.30318 16.5766 5.30439 16.5569C5.30561 16.5371 5.31071 16.5177 5.31941 16.4999C5.39255 16.3508 5.47126 16.2013 5.55088 16.0564C5.55999 16.038 5.57274 16.0217 5.58836 16.0084C5.60398 15.9952 5.62214 15.9852 5.64174 15.9792C5.66133 15.9732 5.68194 15.9712 5.70232 15.9734C5.7227 15.9756 5.74242 15.9819 5.76027 15.992C5.77813 16.0021 5.79374 16.0157 5.80616 16.032C5.81858 16.0483 5.82755 16.067 5.83252 16.0869C5.83749 16.1067 5.83835 16.1274 5.83506 16.1477C5.83177 16.1679 5.82439 16.1873 5.81338 16.2045C5.73421 16.3434 5.65829 16.4883 5.58792 16.6323C5.57552 16.6571 5.5565 16.678 5.53296 16.6926C5.50943 16.7072 5.4823 16.715 5.45459 16.7152V16.717ZM6.11059 15.6013C6.0831 15.6012 6.05616 15.5935 6.0327 15.5792C6.00924 15.5649 5.99014 15.5444 5.97747 15.52C5.96479 15.4956 5.95902 15.4682 5.96078 15.4407C5.96254 15.4133 5.97176 15.3869 5.98745 15.3643C6.08281 15.2254 6.18327 15.0925 6.28605 14.962C6.31142 14.9331 6.34686 14.9151 6.38511 14.9115C6.42336 14.908 6.46153 14.9192 6.49178 14.9429C6.52203 14.9665 6.54207 15.0009 6.54781 15.0389C6.55354 15.0769 6.54453 15.1156 6.52262 15.1472C6.42355 15.2731 6.32633 15.4036 6.2342 15.5356C6.22044 15.5557 6.20201 15.5722 6.18048 15.5837C6.15895 15.5951 6.13497 15.6012 6.11059 15.6013V15.6013ZM6.92863 14.6027C6.89911 14.6028 6.87024 14.5941 6.8456 14.5779C6.82096 14.5617 6.80164 14.5385 6.79004 14.5114C6.77845 14.4843 6.77509 14.4543 6.78039 14.4253C6.78568 14.3962 6.7994 14.3694 6.81983 14.3481C6.93464 14.2277 7.05501 14.1097 7.1763 13.9963C7.20559 13.9691 7.24448 13.9546 7.28441 13.9561C7.32435 13.9576 7.36207 13.9749 7.38926 14.0041C7.41646 14.0334 7.43091 14.0723 7.42943 14.1123C7.42796 14.1522 7.41068 14.1899 7.38139 14.2171C7.26426 14.3259 7.14992 14.4402 7.03742 14.5564C7.0234 14.5715 7.00642 14.5835 6.98754 14.5917C6.96866 14.5999 6.94829 14.6042 6.9277 14.6041L6.92863 14.6027ZM7.88925 13.7412C7.85771 13.7414 7.82689 13.7317 7.80116 13.7135C7.77542 13.6953 7.75607 13.6694 7.74583 13.6396C7.7356 13.6097 7.735 13.5774 7.74412 13.5472C7.75324 13.517 7.77162 13.4905 7.79666 13.4713C7.9286 13.3699 8.06517 13.2713 8.2022 13.1782C8.21856 13.1671 8.23694 13.1593 8.25631 13.1553C8.27568 13.1513 8.29565 13.1511 8.31508 13.1548C8.33451 13.1585 8.35302 13.166 8.36956 13.1768C8.38609 13.1877 8.40033 13.2017 8.41146 13.2181C8.42258 13.2344 8.43038 13.2528 8.4344 13.2722C8.43842 13.2915 8.43859 13.3115 8.43489 13.3309C8.43119 13.3504 8.4237 13.3689 8.41285 13.3854C8.402 13.4019 8.388 13.4162 8.37164 13.4273C8.23924 13.5171 8.1073 13.6125 7.97999 13.7102C7.95384 13.7308 7.92162 13.7422 7.88832 13.7426L7.88925 13.7412ZM8.96978 13.0366C8.93639 13.0364 8.90399 13.0252 8.87764 13.0047C8.8513 12.9842 8.8325 12.9556 8.82419 12.9232C8.81588 12.8909 8.81853 12.8567 8.83172 12.826C8.84491 12.7954 8.8679 12.7699 8.89709 12.7537C9.04292 12.6736 9.19292 12.5972 9.34292 12.5259C9.37901 12.5088 9.42044 12.5067 9.45807 12.5201C9.49571 12.5336 9.52648 12.5614 9.5436 12.5975C9.56073 12.6336 9.56282 12.675 9.54941 12.7126C9.53599 12.7503 9.50818 12.781 9.47208 12.7982C9.32717 12.8671 9.18273 12.9407 9.042 13.0176C9.01985 13.0307 8.99461 13.0378 8.96885 13.038L8.96978 13.0366ZM16.8816 12.9625C16.8573 12.9625 16.8333 12.9566 16.8117 12.9454C16.6696 12.8708 16.5233 12.7995 16.377 12.7338C16.3406 12.7174 16.3122 12.6871 16.2981 12.6497C16.284 12.6124 16.2853 12.5709 16.3018 12.5345C16.3182 12.4981 16.3485 12.4697 16.3858 12.4556C16.4232 12.4415 16.4647 12.4428 16.5011 12.4593C16.6529 12.5273 16.8043 12.6014 16.9515 12.6783C16.9812 12.694 17.0048 12.7192 17.0185 12.7499C17.0323 12.7806 17.0354 12.815 17.0274 12.8476C17.0193 12.8803 17.0006 12.9093 16.9742 12.9301C16.9478 12.9509 16.9152 12.9623 16.8816 12.9625ZM10.1443 12.5051C10.1089 12.505 10.0747 12.4924 10.0476 12.4696C10.0206 12.4467 10.0024 12.4151 9.99629 12.3803C9.99017 12.3454 9.99649 12.3095 10.0141 12.2789C10.0318 12.2482 10.0597 12.2247 10.0929 12.2125C10.2489 12.156 10.4086 12.1037 10.5679 12.0565C10.5869 12.0509 10.6067 12.0491 10.6264 12.0511C10.6461 12.0532 10.6652 12.0591 10.6826 12.0685C10.6999 12.078 10.7153 12.0907 10.7278 12.1061C10.7402 12.1215 10.7495 12.1392 10.7551 12.1581C10.7608 12.1771 10.7626 12.197 10.7605 12.2167C10.7585 12.2363 10.7526 12.2554 10.7431 12.2728C10.7337 12.2902 10.7209 12.3056 10.7055 12.318C10.6902 12.3305 10.6725 12.3398 10.6535 12.3454C10.5003 12.3917 10.3461 12.4417 10.1952 12.4963C10.179 12.5028 10.1617 12.5064 10.1443 12.507V12.5051ZM15.6937 12.456C15.6771 12.456 15.6607 12.4532 15.6451 12.4477C15.4932 12.3963 15.3377 12.3486 15.1821 12.306C15.1436 12.2954 15.1109 12.2699 15.0912 12.2352C15.0715 12.2005 15.0664 12.1594 15.077 12.1209C15.0876 12.0824 15.1131 12.0497 15.1479 12.03C15.1826 12.0103 15.2237 12.0051 15.2622 12.0158C15.4224 12.0597 15.5835 12.1084 15.7409 12.1625C15.7744 12.1741 15.8027 12.1971 15.8209 12.2275C15.8392 12.2579 15.8461 12.2937 15.8406 12.3287C15.8351 12.3637 15.8174 12.3956 15.7907 12.4189C15.7641 12.4422 15.73 12.4553 15.6946 12.456H15.6937ZM11.3882 12.1635C11.3509 12.1633 11.3149 12.1493 11.2873 12.1241C11.2597 12.0989 11.2425 12.0644 11.239 12.0272C11.2355 11.99 11.2459 11.9528 11.2683 11.9229C11.2906 11.893 11.3233 11.8725 11.36 11.8653C11.5234 11.8334 11.6896 11.8061 11.854 11.7843C11.8936 11.779 11.9336 11.7897 11.9654 11.8139C11.9971 11.8382 12.0179 11.8741 12.0232 11.9137C12.0284 11.9533 12.0178 11.9934 11.9935 12.0251C11.9693 12.0568 11.9334 12.0776 11.8938 12.0829C11.7354 12.1037 11.5748 12.1292 11.4174 12.1607C11.4078 12.1625 11.398 12.1634 11.3882 12.1635V12.1635ZM14.447 12.1366C14.4383 12.1367 14.4296 12.136 14.421 12.1343C14.2632 12.107 14.1021 12.0834 13.9428 12.0653C13.9046 12.059 13.8702 12.0383 13.8468 12.0074C13.8235 11.9764 13.8129 11.9377 13.8173 11.8992C13.8217 11.8607 13.8408 11.8254 13.8705 11.8006C13.9002 11.7757 13.9384 11.7633 13.9771 11.7658C14.1423 11.7848 14.309 11.8088 14.4729 11.8375C14.5105 11.8435 14.5445 11.8634 14.568 11.8934C14.5914 11.9234 14.6027 11.9612 14.5994 11.9992C14.5961 12.0371 14.5785 12.0724 14.5502 12.0979C14.5219 12.1234 14.485 12.1372 14.447 12.1366ZM12.6701 12.0162C12.6315 12.0149 12.5948 11.9988 12.5677 11.9713C12.5406 11.9437 12.5251 11.9068 12.5243 11.8682C12.5236 11.8295 12.5378 11.7921 12.5639 11.7635C12.59 11.735 12.626 11.7176 12.6646 11.7149C12.8299 11.7088 12.9979 11.7074 13.165 11.7107C13.1855 11.71 13.2059 11.7136 13.2249 11.721C13.244 11.7285 13.2613 11.7398 13.2759 11.7542C13.2905 11.7686 13.302 11.7858 13.3097 11.8048C13.3174 11.8237 13.3211 11.8441 13.3207 11.8645C13.3203 11.885 13.3157 11.9052 13.3073 11.9238C13.2988 11.9425 13.2867 11.9592 13.2715 11.973C13.2564 11.9868 13.2386 11.9974 13.2193 12.0041C13.2 12.0108 13.1794 12.0135 13.159 12.0121C12.9975 12.0088 12.835 12.0121 12.6757 12.0162H12.6701Z" fill="white"/>
<path opacity="0.64" d="M17.776 13.5079C17.7452 13.508 17.7151 13.4987 17.6899 13.481C17.6257 13.436 17.5604 13.392 17.4941 13.3491C17.4606 13.3272 17.4372 13.293 17.429 13.2539C17.4208 13.2148 17.4285 13.174 17.4503 13.1405C17.4722 13.1071 17.5064 13.0837 17.5455 13.0755C17.5846 13.0673 17.6254 13.0749 17.6589 13.0968C17.7274 13.1412 17.7951 13.1875 17.8621 13.2357C17.8885 13.254 17.9083 13.2802 17.9187 13.3105C17.9291 13.3409 17.9295 13.3738 17.9199 13.4044C17.9102 13.435 17.8911 13.4617 17.8652 13.4807C17.8393 13.4996 17.8081 13.5098 17.776 13.5097V13.5079Z" fill="white"/>
</g>
<path d="M3.31992 26.7323C3.34243 26.7608 3.37285 26.7813 3.40698 26.791C3.44111 26.8007 3.47728 26.7991 3.5105 26.7864L5.45865 26.0379C6.23768 26.665 7.10917 27.1554 8.03894 27.4898L8.5095 29.5999C8.51774 29.636 8.5365 29.6686 8.56319 29.6931C8.58988 29.7176 8.62318 29.7329 8.65852 29.7368L11.1353 29.9991C11.1705 30.0028 11.206 29.9949 11.2368 29.9765C11.2675 29.9581 11.2921 29.9302 11.307 29.8967L12.1776 27.9292C13.1524 27.7965 14.0999 27.4986 14.983 27.0471L16.7476 28.1891C16.7777 28.2087 16.813 28.218 16.8484 28.2156C16.8839 28.2133 16.9177 28.1994 16.9452 28.1759L18.8738 26.5306C18.9013 26.5071 18.9212 26.4753 18.9306 26.4394C18.9401 26.4035 18.9386 26.3655 18.9263 26.3306L18.2103 24.2951C18.8103 23.4812 19.2792 22.5705 19.5984 21.5988L21.618 21.102C21.6524 21.0936 21.6835 21.0742 21.7069 21.0464C21.7302 21.0186 21.7447 20.9839 21.7482 20.9471L21.9991 18.3574C22.0027 18.3205 21.9952 18.2834 21.9776 18.2512C21.96 18.219 21.9333 18.1933 21.9011 18.1778L20.0188 17.2679C19.8924 16.249 19.6076 15.2585 19.1757 14.3355L20.2737 12.491C20.2924 12.4594 20.3012 12.4226 20.299 12.3856C20.2967 12.3486 20.2835 12.3132 20.2612 12.2844L18.6871 10.2677C18.6645 10.239 18.634 10.2184 18.5997 10.2087C18.5654 10.199 18.5291 10.2007 18.4957 10.2136L16.5445 10.9645C15.766 10.3374 14.895 9.84706 13.9657 9.51268L13.4905 7.40255C13.4825 7.36644 13.4639 7.33383 13.4373 7.30928C13.4108 7.28474 13.3775 7.26948 13.3422 7.26565L10.8623 7.00086C10.8271 6.99723 10.7916 7.00515 10.7609 7.0235C10.7301 7.04186 10.7055 7.06976 10.6906 7.10333L9.82004 9.07082C8.84682 9.20425 7.90088 9.50246 7.01937 9.95373L5.25474 8.81177C5.22461 8.79213 5.18935 8.78283 5.15391 8.78518C5.11847 8.78753 5.08462 8.80142 5.0571 8.82488L3.1262 10.4727C3.09869 10.496 3.07884 10.5278 3.06942 10.5635C3.06 10.5992 3.06148 10.6371 3.07366 10.6719L3.79049 12.7082C3.19025 13.522 2.7211 14.4327 2.40153 15.4045L0.382005 15.9005C0.347534 15.9091 0.316488 15.9287 0.293163 15.9567C0.269838 15.9846 0.255389 16.0194 0.251815 16.0562L0.000844682 18.6451C-0.00267581 18.6821 0.00486389 18.7193 0.0224227 18.7516C0.0399815 18.7839 0.0666945 18.8097 0.0988797 18.8255L1.98115 19.7346C2.10793 20.7534 2.3927 21.7439 2.82425 22.667L1.73175 24.5115C1.71307 24.5431 1.70431 24.58 1.7067 24.617C1.70909 24.6541 1.72251 24.6894 1.74508 24.7181L3.31992 26.7323Z" fill="url(#paint2_linear)"/>
<path opacity="0.56" d="M10.5012 23C9.33661 23.0003 8.21726 22.5491 7.37843 21.7413C6.53959 20.9334 6.04662 19.8318 6.00314 18.668C5.95966 17.5042 6.36905 16.3689 7.14526 15.5007C7.92146 14.6325 9.00403 14.0991 10.1654 14.0125C11.3268 13.9259 12.4765 14.2929 13.3729 15.0364C14.2692 15.7799 14.8425 16.8419 14.972 17.9993C15.1016 19.1566 14.7775 20.3192 14.0677 21.2425C13.358 22.1658 12.3179 22.778 11.1661 22.9504C10.946 22.9828 10.7237 22.9994 10.5012 23ZM10.5129 14.7772C10.3303 14.7772 10.148 14.7909 9.9675 14.8181C9.01442 14.9604 8.15366 15.4668 7.56624 16.2307C6.97881 16.9946 6.71049 17.9565 6.8177 18.9142C6.92492 19.8718 7.39931 20.7506 8.14111 21.3657C8.88292 21.9808 9.83434 22.2843 10.7953 22.2124C11.7563 22.1404 12.6519 21.6987 13.2938 20.98C13.9358 20.2613 14.274 19.3216 14.2375 18.3587C14.2009 17.3957 13.7923 16.4845 13.0977 15.8165C12.4031 15.1486 11.4765 14.7761 10.5129 14.7772V14.7772Z" fill="white"/>
<path d="M17.6307 14.4253L18.8351 13.871C19.3611 14.2136 19.9395 14.4682 20.5474 14.6247L20.9525 15.89C20.9593 15.9116 20.9727 15.9304 20.9908 15.9439C21.009 15.9574 21.0309 15.9648 21.0535 15.9651L22.6434 16C22.6661 16.0004 22.6884 15.9938 22.7071 15.981C22.7259 15.9681 22.7402 15.9498 22.748 15.9284L23.2067 14.6856C23.8209 14.5557 24.4099 14.3265 24.9503 14.0069L26.1297 14.6131C26.15 14.6233 26.1729 14.6269 26.1953 14.6236C26.2177 14.6202 26.2385 14.61 26.2549 14.5943L27.403 13.4945C27.4193 13.4788 27.4304 13.4584 27.4348 13.4362C27.4391 13.414 27.4364 13.3909 27.4271 13.3702L26.8719 12.1667C27.216 11.6395 27.4715 11.0596 27.6283 10.4499L28.89 10.0457C28.9117 10.0388 28.9308 10.0253 28.9444 10.007C28.958 9.98869 28.9656 9.96659 28.966 9.94379L29 8.35396C29.0004 8.33138 28.9938 8.30923 28.9812 8.29051C28.9685 8.27179 28.9504 8.25742 28.9293 8.24934L27.6865 7.79064C27.5559 7.17645 27.3264 6.58757 27.0069 6.04701L27.6131 4.86761C27.6237 4.8475 27.6276 4.8246 27.6244 4.80213C27.6212 4.77967 27.611 4.75878 27.5952 4.74242L26.4954 3.59432C26.4797 3.57798 26.4593 3.56689 26.4371 3.56256C26.4149 3.55824 26.3918 3.5609 26.3711 3.57017L25.1667 4.12545C24.64 3.78219 24.0607 3.52755 23.4517 3.37167L23.0466 2.11C23.0399 2.08834 23.0265 2.06934 23.0084 2.0557C22.9902 2.04206 22.9683 2.03447 22.9456 2.03399L21.3549 2.00002C21.3323 1.99963 21.3101 2.00619 21.2914 2.01883C21.2727 2.03147 21.2583 2.04956 21.2502 2.07066L20.7915 3.31444C20.1758 3.44532 19.5856 3.67608 19.0443 3.99758L17.8658 3.39134C17.8457 3.38081 17.8228 3.37688 17.8003 3.38009C17.7779 3.3833 17.757 3.39349 17.7406 3.40922L16.5916 4.50994C16.5753 4.52546 16.5643 4.54573 16.5601 4.56788C16.5559 4.59003 16.5588 4.61293 16.5684 4.63334L17.1228 5.83778C16.7805 6.36432 16.5259 6.94291 16.369 7.551L15.11 7.95069C15.0885 7.95787 15.0698 7.97152 15.0563 7.98977C15.0429 8.00801 15.0354 8.02997 15.0349 8.05263L15 9.64246C14.9996 9.66517 15.0062 9.68746 15.019 9.70622C15.0319 9.72497 15.0502 9.73926 15.0716 9.74707L16.3144 10.2058C16.4443 10.82 16.6735 11.409 16.9931 11.9494L16.3869 13.1279C16.3767 13.1482 16.3731 13.1711 16.3764 13.1935C16.3798 13.2159 16.39 13.2367 16.4057 13.2531L17.5055 14.4021C17.5213 14.4186 17.5419 14.4297 17.5643 14.4339C17.5868 14.4381 17.61 14.4351 17.6307 14.4253V14.4253Z" fill="url(#paint3_linear)"/>
<path opacity="0.56" d="M21.4995 11C20.861 10.9999 20.2468 10.7555 19.7828 10.3169C19.3188 9.87841 19.0402 9.27897 19.004 8.64154C18.9679 8.00412 19.177 7.37702 19.5884 6.88884C19.9999 6.40066 20.5825 6.0884 21.2169 6.01609C21.8512 5.94378 22.4892 6.11691 22.9999 6.49996C23.5107 6.88302 23.8556 7.44697 23.9638 8.07618C24.072 8.70538 23.9355 9.35216 23.582 9.88387C23.2286 10.4156 22.6852 10.7919 22.0631 10.9357C21.8783 10.9786 21.6892 11.0002 21.4995 11ZM21.4995 6.38698C21.0606 6.38689 20.6326 6.52325 20.2747 6.77718C19.9167 7.03112 19.6466 7.39006 19.5017 7.8043C19.3568 8.21855 19.3443 8.6676 19.4659 9.08926C19.5875 9.51093 19.8373 9.88436 20.1805 10.1578C20.5237 10.4313 20.9435 10.5913 21.3817 10.6156C21.8199 10.6399 22.2548 10.5274 22.6262 10.2937C22.9976 10.0599 23.2871 9.71642 23.4547 9.31082C23.6222 8.90521 23.6595 8.45754 23.5614 8.02979C23.4531 7.5653 23.1914 7.15086 22.8186 6.85333C22.4459 6.5558 21.9837 6.39254 21.5068 6.3899L21.4995 6.38698Z" fill="white"/>
<path d="M24.9615 26.1497C24.9748 26.1658 24.9928 26.1775 25.013 26.1831C25.0332 26.1887 25.0546 26.1879 25.0743 26.1808L26.2255 25.7607C26.6851 26.1153 27.1995 26.3925 27.7484 26.5815L28.0252 27.7739C28.03 27.7944 28.041 27.8128 28.0568 27.8267C28.0726 27.8406 28.0923 27.8493 28.1131 27.8514L29.5765 27.9995C29.5974 28.0015 29.6184 27.997 29.6366 27.9866C29.6548 27.9762 29.6693 27.9604 29.6782 27.9414L30.1995 26.8258C30.7753 26.7508 31.335 26.5825 31.8566 26.3275L32.8991 26.9732C32.9171 26.9841 32.9379 26.9892 32.9588 26.9878C32.9797 26.9864 32.9997 26.9787 33.0161 26.9656L34.1527 26.0376C34.1689 26.0242 34.1806 26.0063 34.1861 25.9861C34.1917 25.9659 34.1909 25.9445 34.1839 25.9248L33.7602 24.7745C34.1148 24.315 34.3921 23.8007 34.5812 23.252L35.7739 22.9717C35.7943 22.9669 35.8126 22.9559 35.8264 22.9401C35.8402 22.9243 35.8487 22.9047 35.8507 22.8838L35.9995 21.4208C36.0015 21.3999 35.997 21.379 35.9866 21.3607C35.9762 21.3425 35.9604 21.328 35.9414 21.3191L34.829 20.8049C34.7539 20.2292 34.5856 19.6697 34.3306 19.1481L34.9758 18.1024C34.987 18.0846 34.9923 18.0637 34.991 18.0427C34.9896 18.0217 34.9816 18.0016 34.9681 17.9854L34.0385 16.8463C34.0252 16.8301 34.0072 16.8185 33.987 16.8129C33.9668 16.8073 33.9454 16.8081 33.9257 16.8152L32.7745 17.2387C32.3149 16.8842 31.8005 16.6069 31.2516 16.4179L30.9713 15.2255C30.9665 15.2051 30.9554 15.1868 30.9397 15.173C30.9239 15.1592 30.9042 15.1507 30.8834 15.1487L29.42 15.0006C29.3992 14.9983 29.3782 15.0027 29.3599 15.013C29.3417 15.0233 29.3271 15.039 29.3183 15.058L28.804 16.1702C28.2282 16.2452 27.6685 16.4135 27.1468 16.6684L26.1043 16.0234C26.0865 16.0122 26.0656 16.0069 26.0446 16.0082C26.0236 16.0096 26.0036 16.0176 25.9874 16.0311L24.848 16.9605C24.8318 16.9738 24.8201 16.9918 24.8146 17.012C24.809 17.0322 24.8098 17.0536 24.8168 17.0733L25.2405 18.2242C24.8859 18.6837 24.6086 19.198 24.4195 19.7467L23.2268 20.027C23.2065 20.032 23.1883 20.0431 23.1745 20.0588C23.1608 20.0746 23.1522 20.0941 23.15 20.1149L23.0005 21.5786C22.9985 21.5995 23.003 21.6205 23.0134 21.6387C23.0238 21.6569 23.0396 21.6714 23.0586 21.6803L24.171 22.1945C24.2461 22.7702 24.4144 23.3298 24.6694 23.8513L24.0242 24.8936C24.013 24.9114 24.0077 24.9323 24.009 24.9533C24.0104 24.9743 24.0184 24.9943 24.0319 25.0105L24.9615 26.1497Z" fill="url(#paint4_linear)"/>
<path opacity="0.56" d="M29.5002 24C28.8531 24 28.2313 23.7492 27.7654 23.3003C27.2994 22.8513 27.0257 22.2392 27.0017 21.5926C26.9777 20.946 27.2054 20.3153 27.6368 19.8331C28.0682 19.3509 28.6698 19.0547 29.315 19.0069C29.9603 18.959 30.599 19.1632 31.0968 19.5764C31.5947 19.9897 31.9129 20.5799 31.9846 21.223C32.0563 21.866 31.8759 22.5118 31.4813 23.0246C31.0867 23.5374 30.5087 23.8772 29.8687 23.9727C29.7467 23.991 29.6235 24.0001 29.5002 24V24ZM29.5089 19.8727C29.4277 19.8725 29.3465 19.8784 29.2661 19.8902C29.042 19.9078 28.8239 19.9714 28.6254 20.0768C28.4268 20.1823 28.2521 20.3274 28.112 20.5032C27.9719 20.679 27.8694 20.8818 27.8109 21.0988C27.7525 21.3159 27.7392 21.5427 27.772 21.7651C27.8049 21.9875 27.883 22.2008 28.0017 22.3917C28.1204 22.5826 28.2771 22.7471 28.462 22.8749C28.6469 23.0028 28.8562 23.0912 29.0767 23.1348C29.2972 23.1784 29.5244 23.1762 29.744 23.1284C30.1445 23.0584 30.5046 22.8423 30.7548 22.5219C31.0049 22.2015 31.1272 21.7997 31.0979 21.3943C31.0686 20.9889 30.8899 20.6088 30.5963 20.3276C30.3027 20.0465 29.9152 19.8844 29.5089 19.8727V19.8727Z" fill="white"/>
</g>
<defs>
<linearGradient id="paint0_linear" x1="7.59873" y1="8.95209" x2="69.3175" y2="60.9938" gradientUnits="userSpaceOnUse">
<stop stop-color="#FDB11C"/>
<stop offset="1" stop-color="#FDB11C"/>
</linearGradient>
<linearGradient id="paint1_linear" x1="945.894" y1="1902.48" x2="11565.1" y2="9502.51" gradientUnits="userSpaceOnUse">
<stop stop-color="#FDB11C"/>
<stop offset="1" stop-color="#FDB11C"/>
</linearGradient>
<linearGradient id="paint2_linear" x1="-58186" y1="69891.6" x2="-77257.7" y2="69881.9" gradientUnits="userSpaceOnUse">
<stop offset="0.9375" stop-color="#50CFC9"/>
<stop offset="1" stop-color="#4CDBD4"/>
</linearGradient>
<linearGradient id="paint3_linear" x1="7230.32" y1="2218.2" x2="7339.66" y2="6136.1" gradientUnits="userSpaceOnUse">
<stop stop-color="#3EBAB4"/>
<stop offset="1" stop-color="#50CFC9"/>
</linearGradient>
<linearGradient id="paint4_linear" x1="7810.65" y1="5512.18" x2="9431.88" y2="3988.32" gradientUnits="userSpaceOnUse">
<stop stop-color="#3EBAB4"/>
<stop offset="1" stop-color="#4CDBD4"/>
</linearGradient>
<clipPath id="clip0">
<rect width="36.3389" height="36" fill="white"/>
</clipPath>
</defs>
</svg>
