<svg width="20" height="20" viewBox="0 0 20 20" fill="none" xmlns="http://www.w3.org/2000/svg">
<path d="M9.46026 12.832L5.44984 8.82272C5.308 8.67919 5.22872 8.48536 5.2293 8.28357C5.22989 8.08178 5.3103 7.88842 5.45297 7.74571C5.59564 7.603 5.78898 7.52254 5.99077 7.5219C6.19256 7.52126 6.38641 7.6005 6.52998 7.7423L9.23644 10.448V1.59738C9.23644 1.39479 9.31692 1.20049 9.46017 1.05723C9.60343 0.913977 9.79773 0.833496 10.0003 0.833496C10.2029 0.833496 10.3972 0.913977 10.5405 1.05723C10.6837 1.20049 10.7642 1.39479 10.7642 1.59738V10.448L13.4707 7.7423C13.6142 7.6005 13.8081 7.52126 14.0099 7.5219C14.2117 7.52254 14.405 7.603 14.5477 7.74571C14.6904 7.88842 14.7708 8.08178 14.7713 8.28357C14.7719 8.48536 14.6927 8.67919 14.5508 8.82272L10.5404 12.832C10.3971 12.9752 10.2029 13.0557 10.0003 13.0557C9.79777 13.0557 9.60351 12.9752 9.46026 12.832ZM19.167 17.639V12.2918C19.167 12.0892 19.0865 11.8949 18.9433 11.7517C18.8 11.6084 18.6057 11.5279 18.4031 11.5279C18.2005 11.5279 18.0062 11.6084 17.863 11.7517C17.7197 11.8949 17.6392 12.0892 17.6392 12.2918V17.639H2.36144V12.2918C2.36144 12.0892 2.28096 11.8949 2.1377 11.7517C1.99444 11.6084 1.80014 11.5279 1.59755 11.5279C1.39495 11.5279 1.20065 11.6084 1.0574 11.7517C0.914141 11.8949 0.83366 12.0892 0.83366 12.2918V17.639C0.834116 18.0441 0.995224 18.4324 1.28164 18.7188C1.56805 19.0053 1.95638 19.1664 2.36144 19.1668H17.6392C18.0443 19.1664 18.4326 19.0053 18.719 18.7188C19.0054 18.4324 19.1665 18.0441 19.167 17.639Z" fill="#5C5F62"/>
</svg>
