<svg width="25" height="25" viewBox="0 0 25 25" fill="none" xmlns="http://www.w3.org/2000/svg">
<g opacity="0.6">
<path fill-rule="evenodd" clip-rule="evenodd" d="M17.2617 7.63418C18.2435 8.8178 18.8338 10.3379 18.8338 11.9959C18.8338 12.9651 18.6321 13.8872 18.2684 14.7225L22.1594 18.0686C23.2226 16.2932 23.8338 14.2159 23.8338 11.9959C23.8338 8.82083 22.5836 5.93771 20.5486 3.81201L17.2617 7.63418Z" fill="#FFC14A"/>
<path fill-rule="evenodd" clip-rule="evenodd" d="M12.0009 5C8.13443 5 5 8.13443 5 12.0009C5 15.8675 8.13443 19.0019 12.0009 19.0019C15.8675 19.0019 19.0019 15.8675 19.0019 12.0009C19.0019 8.13443 15.8675 5 12.0009 5ZM0 12.0009C0 5.37301 5.37301 0 12.0009 0C18.6289 0 24.0019 5.37301 24.0019 12.0009C24.0019 18.6289 18.6289 24.0019 12.0009 24.0019C5.37301 24.0019 0 18.6289 0 12.0009ZM14.897 5.62966C17.3177 6.73156 19.0007 9.17167 19.0007 12.0049C19.0007 14.2441 17.9494 16.2378 16.3134 17.5193L20.1725 20.7929C22.5275 18.6017 24.0007 15.4753 24.0007 12.0049C24.0007 7.64774 21.6787 3.83295 18.2046 1.73041L14.897 5.62966Z" fill="#00ACA5"/>
</g>
</svg>
