<svg
	height="16"
	viewBox="0 0 16 16"
	width="16"
	xmlns="http://www.w3.org/2000/svg"
	>
	<path
		d="M0.195478 14.8638L4.17481 10.8845C3.0904 9.5582 2.55723 7.86587 2.68558 6.15752C2.81394 4.44916 3.594 2.85549 4.86442 1.70615C6.13484 0.556815 7.79842 -0.0602641 9.51105 -0.0174429C11.2237 0.0253784 12.8543 0.724823 14.0657 1.93622C15.2771 3.14761 15.9766 4.77827 16.0194 6.4909C16.0622 8.20354 15.4451 9.86711 14.2958 11.1375C13.1465 12.4079 11.5528 13.188 9.84444 13.3164C8.13609 13.4447 6.44375 12.9116 5.11748 11.8271L1.13815 15.8065C1.01241 15.9279 0.844009 15.9951 0.669212 15.9936C0.494414 15.9921 0.327206 15.922 0.2036 15.7984C0.0799952 15.6747 0.00988197 15.5075 0.00836372 15.3327C0.00684357 15.1579 0.0740404 14.9895 0.195478 14.8638ZM9.33348 12.0018C10.3883 12.0018 11.4195 11.689 12.2965 11.103C13.1736 10.5169 13.8572 9.68399 14.2608 8.70945C14.6645 7.73491 14.7701 6.66256 14.5643 5.62799C14.3585 4.59343 13.8506 3.64312 13.1047 2.89724C12.3588 2.15136 11.4085 1.64341 10.374 1.43762C9.3394 1.23183 8.26704 1.33745 7.2925 1.74112C6.31796 2.14478 5.48501 2.82837 4.89897 3.70543C4.31294 4.58249 4.00015 5.61364 4.00015 6.66847C4.00173 8.08247 4.56415 9.43811 5.564 10.438C6.56385 11.4378 7.91948 12.0002 9.33348 12.0018Z"
	/>
</svg>